<mxfile host="65bd71144e">
    <diagram id="HIP3nbAZw_EuaXWnEj3U" name="Page-1">
        <mxGraphModel dx="772" dy="428" grid="1" gridSize="10" guides="1" tooltips="1" connect="1" arrows="1" fold="1" page="1" pageScale="1" pageWidth="850" pageHeight="1100" math="0" shadow="0">
            <root>
                <mxCell id="0"/>
                <mxCell id="1" parent="0"/>
                <mxCell id="7" value="http://ics2o.mths.ca" style="swimlane;whiteSpace=wrap;html=1;" parent="1" vertex="1">
                    <mxGeometry x="39" y="30" width="760" height="480" as="geometry"/>
                </mxCell>
                <mxCell id="8" value="" style="shape=image;imageAspect=0;aspect=fixed;verticalLabelPosition=bottom;verticalAlign=top;image=data:image/png,iVBORw0KGgoAAAANSUhEUgAAAl0AAAHgCAYAAACfPtgdAAAABGdBTUEAALGPC/xhBQAAAAlwSFlzAAAXEQAAFxEByibzPwAAwN5JREFUeF7snQd4FFX3xicNQm/SpEgRRBQLCIINVCwoinTEAjYQFJHesjsB7IoVRQQpAgKh95YE1E+/v+WzfPrZewN7Q6nh/M+7cMPN5O7u7GaTbDnv8/yeTXZn7vQ775x77h1LJBKJRCKRSCQSiUQikUgkEolEIpEbEVGSbdupR/4ViUQikUgkEhVVgwYNKt+sWbN2devWHdSwYcO1lSpV+py/zgPlypXbdeyxx24/7rjjRjRv3rytbwaRSCQSiUQikXu1bdu2Q7169VbynzBYhxgKwqEKFSp8UbNmzZ78t0gkEolEIpEokLp06dK8evXqOfynG6Nl4lDt2rWft207nf8WiUQikUgkEjlVq1atB1JSUvbwnyYzFRJVq1bdxp8ikUgkEolEIqV+/frVLleu3Jv8p9FAhUv9+vVv4k+RSCQSiUQi0TnnnNM8NTX1V/7TaJyKQkpKyj9du3ZtyH+LRCKRSCQSJa4ee+yxsmlpaTv5T6NpcsImilq0aEHp6enG301Uq1bt//hTJBKJRCKRKHFVv3799fxhNEs6J5xwAm3YsIFyc3Np+/bttG3bNrr77rupTJkyxumdNGnS5Ab+FIlEIpFIJEo8NW3a9CT+CNhDEZGtWbNm+YyWP5YtW0ZVqlQxzq9x6KyzzjqWP0UikUgkEokSR717905JT0//if80GSQfaEJcunSp0WiZ6NWrl7EcRcuWLfvzp0gkEolEIlHiqG3btpfwh9EcgdTUVFq3bp3RXAXi3nvvNZYHWrRoMYc/RSKRSCQSiRJHwcbiysjIMJoqN5x66qnGMitWrPgtf4pEIpFIJBIlhgYOHNiMP4zGCFSrVo22bt1qNFRuuPTSS43lgt69e5fhT5FIJBKJRKL4V/Xq1V/jD6MpAtOmTTOaKbf07dvXWC5o1apVNf4UiUQikUgkin8lJSXt5w+jKcLQENnZ2UYz5ZZBgwYZywblypWrx58ikUgkEolE8a0jL6E2GiIwffp0o5EKhdGjRxvLBmeffbb0YBSJRCKRSBT/uvzyy3vzh9EQdejQIX/w06KQmZlpLB+0aNFiKX+KRCKRSCQSxbeaNm06jz+Mhqh///5GExUqDz/8sLF8UKZMmb/5UyQSiUQikSi+VaVKlR38YTREgwcPNpqoUHnyySeN5Sts207mT5FIJBKJRKL4VVJS0hf8YTRDo0aNMpqoUMFrg0zlK9q0aZPGnyKRSCQSiUTxq+Tk5K/4w2iGbNs2mqhQmTt3rrF8Rbt27Srzp0gkEolEIlH8KiUl5Tv+MJqhhx56yGiiQmXhwoXG8hVdunS5nj9FIpFIJBKJ4leBTNfMmTONJipU8JJsU/mKxo0br+dPkUgkEolEovgVm66d/GE0Q2gWNJmoUFm5ciUlJSUZlwGSk5OlB6NIJBKJRKL4Vmpq6g/8YTRDc+bMMZqoUFm7di2MlXEZgA1ZHn8mMSKRSCQSiUTxqUCmKxKj0YPNmzcHNF3MIUaGjRCJRCKRSBS/YtP1K3+YjBA9/vjjRhMVKhjVPojpoltvvbUWf4pEIpFIJBLFpwKZrvvvv99oosKhcuXKxmUorrrqqh78KRKJRCKRSBSfYtP1B38YjdDkyZONBioc6tSpY1yGok2bNnfzp0hUalo4edr5b3oWPvBLxuZRR76Kdt3O/HyEqUwqI7mRIpFIFK1i0/UnfxiNkMfjMRqocGjSpIlxGYratWtv4U+RqNi03bZTv7C3p6/wPNr2Re/cqb9kbPrykHd73iFv7qFD9vZDZG8ncMibM+3ILNGsdAYdUNQ1NJ9pwlRgxHiJRCJRNCqQ6YpkpOv00083LkORlJSE8cJEoiJr9Zj7K31hr6/zacbSVq9NWWjv8qx9G+Yqz2Gu/BEjputiRr+GPMxlTF1GOqWIRCJRNColJeUf/tAr73zwomqTgQqHjh07Gpeh4PVAE4kovtSSOZ1pzhTVCGD+E5gzmSHMzUz71g1btH5/2IL273iWZHzrXbP9gDd3/2FzlRvUXCl2jlxBbw6eRVuve4CevHw4PXLR7Yu4bKx3OJ07ajP1QwTNgqFqK6Oun98Y7JNLmZqMKdJVlTmVOYsZeoRzmOOZor77tArTgmnHqLKvZk5hjmEiEXkrw+D4t2EuYLCt+LspE87+E4lEopJXINO1ZMkSo4EKhyuvvNK4DMWRiJs8oceHmjEfMBgKBMcXn22Z8kyoxxg31IkMBtBV5RWgYlp5mnr+DfTnxI2UZ+cajZWJNwbNpPMbnUZJlt+Be7G8FxmYxxQmmB5jME+owEChWdDNMiAYK8yn1nMlcyMD04NylGB2zmVeYvTpdfA99u0gBsYmlOPTiEGzptoOU9lgHXMy43b7dMHMPcvsZ/wtYw/zDHMiE84yRCKRqGSUnJy8jz+cFZmPLVu2GA1UOFx99dXGZSjY/O3lTzFdsS0YpHHMAcZ5jPF+TUS8yjFG2QPs9C327JO/yVjT4+fJGyZuue2xFfUq1/qLf3KWZaRVzcb01Z1LaL8n22iydO6+8OaAb0lwgBs7TAnWPdA5+gljmj8YvzCIQlVj3ESFEEXS5/cyfRg96lOReZkxGRV//IupwbiJHA1gYIRM5Zg4yCAaF2wfKmG6xxk9by0Y2FaYQJh7MV8ikSj6xKbLWHFWqVLFN76WyUCFw6BBgwotw8GhXr16+b0hi6JeHZiPGdOxBYhWoTmrEpO8KuPpVh96l/fdb+d6d3nXr/3Du/ULX0L74bwr+mP8empStW6BMpLZJLWu04wuatyGzqx3IjWoXLPA76B59Qb0xfDnaZ9nm9Fsgann31hovka8rLPqn0QXNGrN5dbCMCqInujT4IZ+OeNbf8akLxl9Hre8ymDIlOMYN2ZBX87nzK3MRQwMk1o3RJf0ZcAIf8W8zsCMfcqYDFkWgybSQMbrfMZphrBOiNihaXY5g+iaaR/2ZiozgYwXmkLfZPR5FbuZXQxyQP31vN7MoFmzqM2mIpFIFFnx074pKuHrbRhJ0zVq1KhCy3DSv39/5GiIYkvoRTeDcZp3mIH8/68++YJ/z+814dUvx2Z9fMCTc8DZY9BJ7xM76WXRqbWa0LSLh9DTXUfS/O4TaEkvLy1lPOdeRxXLlC8w7R1n9qRvRi6jA4aI16s3z6DU5JQC049q38eXy/XslWNpUU8Pm7Kb1/L3NzGv6NMxiMa2YhBFMkWkdDOEaYcxiO4gSnZLAJCf1p1pyAQzXcgz080STM5ABjloOBZK3zD4HekDS5nRDNYDEap+DMwPcq9gxFRZAJHvroxu4HSVZRCZ0+eZxaAsNHH2ZboxVxz5O4fRp0Wz80kMolGmfYjvP2T0ecA25h5G5fNhmxE9vZOBUUQTqZoWUTUYfGxDJPLJRCKRKGLSK7Z8MK7WwIEDAxJKoj2GnzAtR+f888+/gT9FsSNEEhAxyT+GtcpXOTS8fa+fr2jRoUAUYnLHgZQz4GH6dfw6QiTLaYZ0/jtkToGmv+Oq1KZHuwyjud3G0eZrH+Tfn6XPhj9PX45YQh8OW0AzLh9RYHq+y9ILNzxGv4xbR3negjlenRqdlj8dyDjnWnr68pG0os9k+vfNT9JHXN5/Bs1EflBj5jTmMzXtEe5iMDSDKYriNF0wOTAgMACIBPqjPQMjgghQMJOAXopqGTC6IxhTlGwJ8zyDawomBUbrQgbNmGiGRD4Wcu+wbGfEazqDPDbdxClhOfr0iG7BcKF8bAv2DXpQwhyikwDMoPNVY5i2HmMymE8w+rTYxgcYmK3rmC4M1hnbgTwxJOujcwWikM8xWDcYRxg+rIubplKRSCQqMekVXEhUqFCBcnJyjCbLyT333GMsQ6dJkyaocEVRrDH3319pg3dW3+8mrZ7J5uc//JXv2CUlJ9Hg1l0PR4y6jaWhZ1xV4NiGYrr6nXR+gXm9511Hs68cQzsGPkrfj15BezK20EFPDhuqHF/+1u/j1xcyU/ddOIgN1ELan3G0mfE/N8/0GTI1TbtjW/D63kkr+06h92+fT39M2Ogrb59n68P8O27WaO7GDV03GT8yMFHosec0SE7ThWgMorfI1UKCuz8Q3UEEKViUC5EnvcnuvwyMXScG66ML6w9jhV5+aA5EQjoiPzBS+A3LgnHEshEJU2WCTQzmQTOfcxth4PRpH2FghlozmB5lYz0VSM6fy+jzjGUQMcQ268K+cjZbwuQOZhAJhNFC0yf2GebF+uMT24DmROQMwtCNZGC6YCrFdIlEoujQhAkTnL2gQmbq1KlGk+Vk2rRpxvl10tLSXuJPURSozaBBacvsp7p+mLHkiYPebf/b583eecDO2Y0mQWWafh231mdiuhzfjmZ0HUGzrhhNWb1tevnGJ+jezrcUOLZuTdf+jGwqn5qeP98x5avSdDZyq/vdRV+PyKID3sJNhofsXN9y9eW1qducXrzxMfpj/Abf75gus9PAAtNM5v/nXzWe/jN4Fu2euCl/Osc4XbixI39IzYcoSi/G1BToNF1oykM0xmkuwhVMjSofoFkXhse0DJglRM4QbYLZgvlxGiglRIn0cnOZK5k6jLOJEVEnfdrJDJojTdMq3cHo86CzBaJiME+6MECyPh1yw5CvhmghDBSm92dMsW04VthWGDqY5UDrJBKJRCUrNl14agzbdFWsWJG2bdtmNFlOnnrqKWMZOqmpqe/zp6iE9az90Dmve+c/uM+z5euD3py/Dnpy9uW5HOfql7FrfXlSy/tkUvZ10+jjYQt8kSc0+XHR+bg1XW8Mnllgvr4nnU9zuo2l1wbNoH8mbTbOAxD5qlDmqFkrk5JKq/veRd+PWpHfxNiu3okFyn78sjtoTf976PvRKws0QzpMF27mGJJBnzeDQdTFaXSK23TpY3NhiJXbGJijYxmTucC643t/ZkupJ6PKBSuOfAfD5izXadBmMmi2NEXFlJBzpc+DpkIMZYHcOKUGjF4XIaIHs4bIFZo6/eWAOYX1RTQPHR5gwtzMIxKJRMWvoUOHYmDEsExX2bJlacWKFUaDZWLGjBnGcnTKlCmD5F+pJCMoIkrabs9N/9jeWHmDPfuM/7Pn3/dHxvrP1etvlNEIF/QS/G7Ucvp0+PP089g1aJrzRYxmdg3PdM27anyB+ZDkjoT5z7l8NoTGeQCW2ax6/fz5UpOTaVGPSfTxHQt9CfUHGX08LvR8nNl1FL1y0xP098SCZs4wIv01TP68zAIGpgE3dv18LW7TpV+r6PGIpj4Mdupcj1C1nlHlgqcY5Ikh78ppupw5Xd8zlzD+ktaRV6U3Gf4fg04KGFNM762MfaWmAeiBiKbTjkwgQ+dPUo+IRKLo0s0334xEYb+mK5lvXDBXisqVK/sS7Pv06eM6l0sxd+5c4zJ02HRhZG3TE7somNhcZY2bWeUbe0X9L+9a0frNyQvv+t6z5g3TuwUjDUwN0AcmDdd0jTmrb4H57rrwRlrf/x76ccxqn7EyzaPo0KBl/nzJSck058qxvpHm92ZspS+GLy6Qz3Vx0zNo7lXj6L2hc2mflvcFDKbLGYVBMzgSup1GozhNF5rLVNlYFzTr9WcwSjuaDsMVcsH0bcM1iMR4vFII6QfO6xHb+xqjpgcvMFgPRJZ0wVS9zajp0FN6AgMTi4FM9emdTYsPMRiPzFSuSCQSxZ4GDhyI5Fej6apWrRpt3LjRN2yEjslQueH5558vtAwnR8YME9MVRLNGTKv+vynLm/1mb+r0nmex92vv6uz9npx9h81V0aNXkSBc03Vhk9YF5nvgosGUc/3DviZL0/Q6vU8qOMwEIln/vmk6/T1pM20f+EiB36464Wx6vqeHPhu+qFAEzc+7FzEMgZofg6BexTib9YrTdH3EqLJ/YpDrBOOHXoLhXjOIWsFkqXJRF6DXI4Z+QA9BvflPFxLWMV6Wmg9g6AlE3VSTHiJcatgKgGsbHWUQvUJkTF9v5Gnp0TCsB4aCwPaZjJ9IJBLFnnr06IGnWVXRFQARrUiO07V06VJXI4DfeOONuJGJWDPH3Vfl3/bzp/zt2XLFF5krJ33jXb1pvzdnTzSZK3+Ea7pa1mpUYL5HL7mNXrzhMfpzwkbj9Doj2/cqMO9DFw+hHTc84uuVuKrf1AK/XdfqIsrqnUlfj1haaFgJP6YLJkrN/zWDEeBhWvTE7uIyXViG/uaIjYzptT8mwQDBuChgmM5jnmR0o4O/lzHIt4KhxLb56/mH79GDUzdsAGYJY3YhCqc/zGEMLYwuj16IKBvroO8TNI/q0+9kMH7Z2Yw/4ycSiUSxpUCmq1GjRhE1XatWrXJlui6//HI8BSeUbNsunztlXpud3jW9/7A3ZX7nXbfpb++WXSVqrryG74pAuKarnmOU+acuH0Gv3DTd17vQNL3O/Z0LvvXgrvNvomxe5m/j19PzPTMK/Da07VW0ou9k+nbUMremSx98ExEcJHg7x4HSTRciY0h8R/4Xxr3CexlNTGIQydGbKZ0azqhy0USHIRFg+tyMQzWGgaFxosoDiKJhmAxEz1AuOgn4GwBWCcnq6IGI3DK9LCcYVgRjicFEoRcimhVhFPWy0Uyrr9MXDMYXQ/qDaawwkUgkij1dfPHFyAnRK8h8WrZsGVHThaZK5IiZlqVz+umnYxTvuNSgQYPS1mXMOPV977Kr99hbH/gxc+OmP7ybPlXmKpAZiQgwVvetIXp6JtHiKUQbbyf6Vz+i984n+vx0og/OIpr3kHneEAnXdNWqUK3AfLOuHE2v3oKei1uM0+s84DBdyA/bct2DvkFSn+s+ocBvozr0oVVXT6VdYwr2XAQuTBdeQ4NrB8MY6PlGuulyC8wGoruBXo2jj+6PpkVEjNRrfwIZI8iZJO8Eo8vvYND0B1OEwUaR5xWsSQ/LRY9CDLSq96rUgfHEmF9oUsR4Ydhfpl6Izl7U/2MwFAZ6LUo+l0gkig916tQJvYj0SjKf0047LaKmCy/PdmO6mjVrlsmfMa9Z90w//jX7+Wv3Ttoy4w/v5i2/21s+5pv7wSPmqniiVzBV3h1E05ayeZpGtGYU0Uv9id68lOiTtkQ7mxD9VP8wP/vhx4ZEcx8xlx8C4Zqumg7ThUFR37hlJu2dtNU4vc7U828oMK+34/W06ZoH6Kexa3yvDtJ/g+la2/9u+nFs4QR9P6YLr9NR86PH3rUMBhyNhOmC2UEzJKI6TkOC3Cf9VV0YLR+DrrqNAiFy5Yxs+QPmDrlcaPoLZuYgGDQk1QcrH++yxGuIED0zmTmMp6WXgdcAwdSiGTJYJE8kEoliQ+eddx6eQPXKMZ927doZzVNRcGO66tSpgyaXmNHs+5849l9TFlz7u2f9rD129o7d9tZP93uz9xeLuVKmCiZh+jyipZlEuTccNlUfnkX01UmHTVMgU+WGN7sUXnaIhGu6GlWrW2C+mVeMwmt5XJmukR16F5j3rgtuyjddeFej/tttba8K1XTpOV3fMsFMF4wSokx48fSaACCPCkM/IH/J2ewGPc2oMhE5wthcbt/TCGEajLeF8bVg1tDMh+Y+jDX2LKNvF8D4WCg/2LhYtzPO922uZtCcibG79I4HAKYKg50iiuZcb+Sa6aYLOXNiukQiUXypdevWE/lDrxjz6dSpk9E4FQUMOWFalk7VqlXxypCok20/VnlDxqz+X2asmHEwM/c/e7zbvmFz9XfEzZUyVlPYZDwzg2jtSKLXryD6qAPRl6cQfX980U1VMN4937xuIRB+Iv1xBeab3mU4vcGma48L0zXg1IsLznvZ8PzmxZV9CybS33haF1pz9d30w5hVbk2XHm1CzlGw5kWYGQy9gGYyjHmFBHJ/ILcSTWmmhHv9hdQoH02LGLvK9BoikzANIkzI/8JI7YhOIWcLPZfR2xDLdg5eilcdYTqTCYSc70eESUKeGR7isF8uZtDzEO9+1KcD6ASAV/boxguvSdJNF5pQMayEDBchEomCymbQFAGQaBq1CmS6Lr30UqNxKgo1axZMkvYDKuVSk719e+oyz1Nd3s1YPH2/J+czNlY/HfDksLkqBmN1/xqihfcR7bj2cPPfVycTfdeMaFcjsxkqKTYMM693CIRrui46vm2B+R7sfKvrnK4LGx8dbiI5KYmeuuxO2nb9NPpt3HraMfCxAuXi1UWr2IjtdIxGDwymC9EW3RRggE+MIYV8Jn+J9DBd6GGIXn6ISuEl0P5ATpMpcR2mSF8uku5VrlMoY3OhXKwnDAzAvGiaxDKRFwbz+CKjlgPQjIntcy4HUTB9OjQvIuqFxHcYLby4G6aqOoPBlxHF07cBoKlRN15YF+c7F5HUj7LEdIlExSw8ZSFsDfBEZhK6T+N3PAW6edorST3IqIoDT6RRq8aNG6Mbt17R5dO1a1ejcSoK9esfHTHcH2lpadv5s1jFC0qybUqea9/X/nXvwkf2Ttr6S553+948b84B/eYbPuomzp+PLiZaMZHotW5E37Oh+qHx4SbAHxuYDU+pUo/onQuIMguakHAI13Tdfmb3gvN1uoFedtl78dQ6x+fPl5KcTDMuv5O2D3yU/piwgT6+fUGBwVFb121GK/qYey9+n7FqFE+jCw9P+fMyiOC4HTIC0SWYCuQy+QN1mKkew+t49OWiafEKBkYN80VCWC6MjXOg5I8ZvPQa5kmtG4ybHvH7i8GretBsiboOHQJUPpgqF/PrvS8BmjDbMvpI+vo4ZGAqg2icm7w1kUhUBOlPPKgITFKVAxJa1UUbrvA0hooEy4VhKqpixnQ1atTI2UyQD0adNxmnonDiiQXffWciPT0dUYQiyyZKXj1mdqVvx2+rsX3Ss+e86Vk8/TfPxs8i8/obvklP2UJ094bDvQFnTyfadBsbls5HcqrYUBV3E2DYsLH6odFhA/h1S6J3O/G6304068mImC1FuKbriS7DC8x355m9acdAjLXF+9owvU6DyrXz5yubksbrMNo33AQGR8U4X/prgCqmlaMlvTz0xZ2LCw2OumPyHPQM1IWBOvPnZWAI0CxYnIOjolyYGlXeywzysWAAgw3nEI4werxe9/7O9GYaMcpYYnvV7wD5alinzgyS4U35V9gONFN+yujzIjKml40ONPrvOQzGE4MxE4lExaiSNl3oOaRf6EVVzJiu+vXr60m6BRg4cKDROBWFU0891bgsnXLlyr3Jn65l21by0hHTqn84aWnjL6au6/Rf+/kHvvGsefno62/CNFhTthHdu5ZoWhbR488RLZ5KtH0A0fvnHDVVUWms2FRh/b5rTvT5qUQfnkn0cm+ilROInppzxFgpDNsdIcI1XYhM6fOhyXDTNffRL+PWFsq90vl+1PIC83Wo15LmdhtHbw2enZ+Ef3z1egWmmXXFaPrw9ud8rzDSy5o+ejoMhK73GDWfytXCEAjF+Rog5DTpkaexjCmPLFKCYdLr3h8YNGXqr+tBpE39DvDQhvHKkPAeqLkTxgvjlenzIpqoR7LQZKpvL1oyEE2MZFRPJBIZFCnTha7WZxwB5WAcHKfwHSoytTzkNSCpE7gRntKQd4BlqJfDBjNdeHJDkirmOZ1B3oQubA9yQJD4agqt43fM05gpUmVUtWpVZ/NFPoMHDzYap6LQvn1747J0ypcvjxucUU+Nv7fa2/aSk/d6tnT50F7u/dq7Zvshe8fBsM3VXRsPm6onnyWa8yjRuhFEr3Zns3JaFBsrNlUqWoXEeoyt9fbFRNk3ES2ZwgZxIW9byRirQIRrujB6fEpSSv58ZVLSKKuXTd+yqXI2A+pknHtNgeV5O15Hi3t56JM7FuWbqjva9SgwzaRzr/X1jNST9Pd4tv1Olq1fV7jG9VfeIMkb0R3kajlfNB1J07WNUWWhOQ6GB0avuF6L4xwrC819av2VoXLmgGL0efSKdPMqosWMPi/yurAP1Yj6mF8fjwzgfYz+OhiIRKIIqaimC92j0RUb0+igCREJsrqRwcCAqiygT38uE0gwPhiZWp8HuR54Q78qTzddqCxR8ejTKzA4Id6kD8GIYR/ge1NTG/In1HzoMRS2ApmuESNGGI1TUejcubNxWTpsuj59ZLhd9SXPojZ/2pt6fJu5xvONd+22g5m5f4dsrnyDga4+PLwCTNXyDKLcAUTvXkD03QnRbaoAolUfnUn05iVEL/dhUziSaC5vx0PLeftK11QFI1zThd86N2lTYF7vudfT+7fNp/2egi+mVvw2dh3VKFcpf/rUpGSaftkdtO7qewokym+97qEC5datWJ2yr3/Il2ivomh/eDf9l3/T6xQMf6DPh+jO9QxytZxmIFKmCwZIz53C+xAxph4e1IIN5aCE6UIRhnpQy1PLdA6LgWZEfRrUW0ieR1J8oHWCcdXfw6iGvoDpQlOpUi9GLx+gznZrNBGtw1AYiNLh7+IwpyJR3Ek3Xf4S6WE48LvTdOGJC0+ian4TMEZKzpe26jjzOnTBuOkjVOuodQO66ZrB6NP94fj/fQZC9E0f4wbdpnXBKOJ7LAdNDUXRK4xaTgG8Xq/ROBUFJOeblqVTr9IxdNCT485cwVThZvnQMqJnniJaMplo09DD0aqP20V/tAp82erwEA2vsKlCXhiaMRF5QxQuyo1VIMI1XWDLtQ8UmDctJZU29r/X9zofZxPjPxO3UNdmZxWYvm/LTjTrijG+BHzkcql5kLt1Ys2CQ1IMbnOlL69LRcP+8W5FnpLShYz+zkP8DbOAfC5EtlU+klKkTJczh2w8g6Y25ECZ8qacginEusJIIRoXzHzA7Oj1LuZFcyaGumjAqO2EQdLrN9RTaCY07QtdUxg1D0B+GkwkkumRS6YEc4folj4teI4JFk3rymAoD0yP9UInB7RYiPESiYJIv/hxgZtQvztNFypM9RsubCTJw8T0ZfT5kEsA4T1/enPguwxyFJBAGqhyQ3dxNQ9MXk8Ggxui+7T6HuimCxUgmgzwtIiysd6IyqmXxqKiUNsyh1FljMMXmtT+wdg4gZ4u3civ6br77ruNxqkodO9esGeaierplSjPkdjsY9oSovkPHm4CxCjr71x0+NU1UWmqwBFThV6KMICvX0m09VaiLPtw4j1GjZ+MG31smirFh7c95xsLy8nwMws25V3f6iJ6oPNgWtlnCm0+Ms37t82jQ97cQkbqAB//8xqcUmD+9NQydPeFN9M/kzb75sE5gijVSccUNFF1Klajx7oMo6zedoGmRYDlrO57V6F3gHZrfja9evMMNvu59OuktQ/xd0gYf4RxDv6JugJmAcnsqFec11+kTBdeg6PKQQ9tDJ+AegMmws01D5Om5kfTJCL/qNf0dYGBg6l8gdHrRoBBTtGE2onRUy2w7LWMPi0ePucxptwrpFHgNUB6+ai/0EyJnDXn4LIoH2ZJH5tMASOI9UI+HcYBw0MxhqPAwyz2u74M1KVo9gyWayYSiVi66QqGbrpwwaOCUb85e73owyPgyUspnER6PUKGJ1AlPO3pL4B1k0ivGx+V34VXcahKRN9GPfyOyqZISk5OdprEfB588EGjcSoKAwYMMC5Lp3xa2YKma/IWov9ecDhqZTQ3pYUWrdrVhOi9jkQvXEe0YhLRnMeInph3uGnTZyhi21gFolJaOeNxdEOylUS7Rq/0Jbo7jdfXd2ZRHccrgQBfCFSlbMUCwz8oyqam0j0X3kLPdhtLL934hDEydsCzzfeya+e8IC05BVE1GC2nCQEYQHQIgyiXv4hTJEwXckT15aOzi3rtj9tyzmTU/AqUacI5HR5WEc3Dgyei7E7TgiEgTKYIZX3GvM1gP8AkmcpHHhgGeMUDL6JXqm5TQh2KPC6U5ZxX4W/dFdhnaBrFvhTTJRIFkW668BqNhQ70XjC6IUFUS12IaIJzCt2P1e949YZSOKZLrSMqVmflGyyRHvkaqBCQe/AAo1fUqCwhGEg9BwL5I9AHDP7HdiDPoUhKSUn5D3+oZRRg1KhRvpdU79ixw2igwmHIkCHGZekgClGgC/+rV2pGp6TRjBWGV8DI8OvvJHr2UaIn5xxOwsewEXFsqgIBA6MPwxAOW699kL4csbRAROpw2dn038GzqWWNhsb5nLSo3oDu7zyYnrliNG285gH6duTyQmUCmLDfx2+gyR1vIMsR8fIDoibTGURYEDHHtegvryoSputuRl8+mu8wIKnezBdMWDcMpBrImDiBSUL+GrYTnYuQP2Ya9R7rgE4+wV6k7QR18v0MonZotoSh87dfYJTwO14J5ow2BgL1mZeBqbuSQYckN82xIlFCSzddoSTSY9BA9b0pAR1lqd//jS+OKFTTheWpcvAiV2el5M90oaJG3lagSJ4yXRAqTfX9ffiCpfLI0KRZZAUyXYqyZctStWrV6Nhjj6XmzZtT7969acqUKbR69eqQDdntt99uXIaTv9VAmMjZgtkxGqJIoRmrT1sT/asf0bJJhyNVDy89PA4XXsnjuHkLh3nwolupe4tzqdNxp9I5DVoV4uwGJxdA/+3Spu1o/lUT6K1Bs2lPRuER5/dlbKNPhy2k2VeModPrNDOeK6fXOZ4mnnuNL3EeQ0Sg2fKz4Yt5Xv/HDIn1v4xdSxv73+dr9kxJMr4TFDmXiMqo19sgyqx6QfvLE7qLQZ30M4NBfpFbhWiLW9OFpjaMj6XWAZFoLBv1iKk5058wHfKvkKiOpsaXGJhHffsUqAMeZjDIKZrrkCqB9AtEtPyZPKwnTCCiYXgI9pdHi84AiPzDSGLUeozQj3oakaxgY43BeCFXDBEx1IUYSsZUPppi0bkB2wlDh2Eu0MsTps3fa4xEIpGmcE0X2vjV94gSOYWKS5U7H18cUVFMF17147yoTaYL0+Aluer7fzGo3JAHgb/V97rpQhOGWg4qF7wjTU2HSrLIKlOmDHLYVJkhk5qaSlWqVKGVK1caTZaTcePGGctx8sPoVYdvkDBdX5yqGaRw0YwVhljIuZFo/jSi+1cT3b2eaOpmokxDHpkQlL1sbv5323zfK3UW9cgImdX97qKPhi2g/X6iUigfUav/u/lJWtlvis9Y4fU+M7qOoJlXjKY53cbQwu4Tae3Vd9NrtzxF349aQfs8wU0yoqlofnxvyBzafO39tLDHRHrw0iEwD4j0wOjAICBSBWOB3CZE0mEUAiVmw4xgOjRB4uaPaAtSBtxGW5BYrq55gEgPygmnmQzriR7R6GyDKD/qOTRTIgqE5kMYFORtYZBSRN6xzjBpiGIF204I64NoOzo7wRghzxWmDfsP5WM5+B/LxG8wW6jfEH1C8nwwM4TfsT+RU4ZtQF2KiB/KQ7kA+XX4H+uP+vQCBpFItCags1OwZYhEIla4pgsDGuoVlrPLNLoeq9/QM0cJT0XqexggN9KfGvVoFtZFz9FSv8FcqXVzvuYml1HT66YL0g0Zomr4RDnBKsTCIkp6Y9DMNL7hpC/3PHb+O/aS2Y2q1Q3Ue9M1GH/LZLKc2LZtnN/J/4bOO3qDRG9Eo5HSQCI9RoLH2FW7GhO9dQnRhjsONwGW0GCgiUoe79c/J2ygr0cspc/ueD5kvhmRRX/x/P7G4ILxgkHaPWEj7WRD9eHtC+mtW2fT64Oe9vE2//3RsIW+3DBESAON5eVEmbqfx66lL4Yvppdvmf4On3+I8qix/TAwKCI6aGaDAQh2E8d1iVxSJIPDKMBguDEwSvqLp/FAB/NSlNf+YH2x3lgn1I8whDAl2EYYPGwnkt2xrlgGpnOznUpYJ5gbRMWwrdhfGPIGZbdjsBw0r8LIIX8LkadQm/uwLjB4iPRhG7CuKBPHB8CQ4jt0fsBxQlQxnH0lEiWswjVdkN5chpwDPOnBfOFJVZWLT1yoSrhQ1TxoFsDTGyqgQE+W6Nmk5kEeBy54zIdImfoeKNOFXopqnREmV5UCnsj+ZNT0TtOFJzn1mwKVsV/1zspK2TZuZpUv7PV1Xpn0bOe3vc8/8Yt3/YdHR2g/etNpViP4uxCDkZycTI8++qjRZDlBs6SpDCcv3PB4gZuj792FX590eNwqvBT6kzOIXryWaNG9RA+s5GnEWJUmMDowRuHiTHY3gWmwHOSRodlxz6QtPpCEj9ytUMyWE2Xsvh+3BuPo4aaNSAw+YUDQxObWhECYFvPAXIQyL+oh/aFxK6N6SsK4FUVYB9Q5WCfUazBK2EZ84v9Q19UpVTb2l9p/qnx8h9+KaoT0bVDLUcdIlR/u+otECa2imC6YFn1QQUynUN8hKdYpJJE650Fznj/BzJmWg7/xwm71tzJdqBR2Mmp6NH9+wmA6PWrmNF2oEJ3RqMNROrKSVo5/osZn9srmuyZvuOhd75J7v/eu/b9QXn9zfPVj9XJDJiUlha6++mqjwTLx0EMFB6f0x8q+U43rK6ZKKE5eyZiHJqvSknPgUeRBYZgHRHFgLEQikahYpEd+EEY2SZka5Ek5n26QvLqLUWUoUK5KSHcKSZ66+YHxQ+g9kBBGdxoiJL4iB0ENXXEWo4Rtwdha+vQwX4i6qWWjTKcwmGv+PP+b8PyU7+21Lxbp9TdHaFK1bn65Tho2bOhrNkTyfIMGDQpw0kknUY8ePWjp0qVGc+WP6dOnG5flZEWfKcb1FYTiZN6U6XoEvKSFkfDVNYB6DTlXyJVyOxq7SCQShSWEjNHzBE18/oQcAtU7xSQYMRgY9DhCMiwSRIOFnlG5YVRj5FCgbDdC+ByD8KEZQK+w8V5EUxkI4aO5AIm6apBUCE+zzWbaDx3z8uQFbX+ZvLX3TnvdXd971+Ws7n9Pfm+mimXKUZ7hZhEu9SvVzDc6Tm666SafUcrNzS2E00y5ZebMmcZlOcFo4qb1FYTi4qA3Zx/ZVJrmBvlbSE9Az2t0xkGCeBsm1Nf5iEQikUjX/WPGVNo4eWbbrzJWDfw9c9MjOzPXbfvbu/V7U+TqsmZn5puRmV1HFrhRFBU3piuSzJs3z7gsJ2K6hJJmrzf7Z7t0I0p4AEPuJ6JbeFjEaPEYMkE9mIlEIpEoiJJW2dNP+8i7YvA+e9vTv9qbsv/ybv1amatg76D7ecwaKpuSlm9GMLaQabpwqVW+8IjfiuIwXWiONC3LySOX3m5cX0EoLg5k5iDHsjSFSDyiWojwoycgevsh6i8SiUQip2ZNefLEt7xLBu+1t877y7vlxd3erV+5NVf+eOCiQflGpFGVOr7u+abpwqVW+aoFzI5OcZiuZcuWGZfl5N7Og4zrKwjFxR/ezdl87pW2YLwQbUMaguRxiUQi0eNTH2/8kj3/xp89a57bm5nzHzZX3x6wc/YWxVz549sRWbRj4CP0rxsfj3iUi+wdVKNcZaPpAWK6hETiDXs+RjQXiUQiUWnovvvuq7LefqbPV54VCw7Y2Z/u9W77kc3VP2ysIm6uSocdVKVseaPpAaVpusac3dewvoJQfCzxPIoBPUUikUhU3Fow9eGLP/JkLTiUuf2XPG/uXwftnP2mijm+iF7TNfqsPob1FYTi4aA3Ny+rdxaa9EQikUhUFGGE9ldGLC3367htVdZPevrSdzzPz97j3fyDbxDRIoxxFfvsKJCk76Q0Tdcd7bob1lcQiocD3px/bMuWHCqRSCRyK9u2U5eOmFb9C3tTo/94nrviTe+iR37yrHvf9PobAUSv6Rp42iWG9RWE4uGgnYv3mopEIpHIpBX2U7X+a6855RfPhi7/zVjy4I+eDe9o5iqBo1ehsINSkpKNpgcUh+nasGEDJSUlGZenI6ZLKEl2T9rwLp93IpFIlNiaO/qBOv+1l52x186+6hN7xQO7bLxbcMcB0yCiQohk7jAaHkVpmq5eLTua11kQioH/eBdhBHiRSCRKDD046sFaL9w1r90PGRuu32mvfXSXvS53rzfnNzFXxccBT47R8CjEdAmJwkJ7+nl83olEIlF8aaZtl8frb77xrBn0p71x+g/2+uw/vFt2ibkqeX4cs8poeBSlabq6nXC2cZ0FoTh4z84qw+edSCQSxa6y7nrmtA+8WcMOZebO+t27eftfni3fKXMlSe2lTzSbrkuOb0dyjgglhfRcFIlEMaPZdz918uuehbfu9m5esNu79f/+8m759qCde1DMVXTzwW3zjYZHIaZLSAi823HOiUQiUXRp9tTpx23LePb6nZPWLdprZ7+3x7vtu8Ovv4mXEdoTi3eHzi1kdnRK03Sd0/AUMV1CifDXpK0yXIRIJCo9LZ22tNzaKU/1/2bSyjWHMnO/2u/N+eWgneszV6ZKS4hN3ho8y2h4FMVhuoAb03V2g1ZsuiL7cm9BMPG/zMXz+ZwTiUSi4hNZlERESSvs6b0+9CxdcdCz7a88ezte2nzQVDEJ8UfOgIeNhkdRHKZrx44dYrqEqGLtxKd68jknEolERdPMmYPSttvTK+60t9TKsZ/t865n8TN/ezf/qAYRNVVAQuKQHcR0DRw40GicioKYLiHa+GnM6kp8zolEIpE7ZWX1TllrzzzmW3tD8w8yll75X8/ih3/xbPxMXn8jBGJpT4/R8OjAIDVs2JA6depE/fv3p1GjRtGsWbNo4cKFtHLlSlq/fr3RXPlDTJcQbbzSa1o5PudEIpGosFZMfLjuB55VbQ5M2nbpB56sh3/0rH9PXn8jhIMb0xUMGKjKlStT79696bnnnjMaLR0xXUJ0sYPwzlY+50QiUSJr3sRp9d6yF7X7x87p87VnzaM7vev+vd+bu1cGERUixZwrxxgNT7iUK1eONm/ebDRbCjFdQjSx15v9F59vIpEoUTTTfuiYHZPntN2VsfbmXd51T+6012fv8Wz7XcyVUNw80WWY0fCES9euXY1GS0dMlxBNfOJdtpbPN5FIFG+aNmJauQ2TZ539tXfVsL3ebTN+ztyY849n2w9iroTS4tFLbjMannA48cQTac2aNUaj5aRixYrGMnTEdAklwSveBYP5fBOJRDGs5GX3PH3mxxnLhx/wZs//3d78yt/auwUlqV2IFjznXWc0PDqISpUtW9bvbyeffDLdeeedQZsVdSpVqmQsT0dMl1ASfD9hdUs+30QiUSxo7l3TT3t10nND/vJuXrEnc9t//vFu+y7Pk3tAzJUQCwQzXddccw3l5ORQbm4urVu3zhfJ0sFvJlMVDDFdQrTw3wlravP5JhKJoklzpj7ZINv77E0/ZmxYu9+b89Ee77ZdB+2c/egtKOZKiFWGnHGl0fAoimtEejFdQnSwg7YPnV6RzzeRSFSaetWeWyfPm7Nzvzf7zyPmynDBCkJsM6hNV6PhUfTt29domoqKmC4hGtibsfUAn2sikai0ZZOdzEZrv+lCFYR44ZY2lxsNj6JPnz5G01RUxHQJ0cCXGStf5HNNJBJFgz73rlpsulAFIV64qsU5RsOjENMlxDPvehdN4nNNJBJFg361N3Q1XaiCEC+I6RISmT8nbTmPzzWRSBQNemn8s03yvDJ+lhC/XNz0DKPhUbgZ7DQcxHQJ0cAHU5aewOeaSCSKBvXO6p2y387ZbbpYBSEeKC3TlZ6eblyejpguoXjZQRsnPFuTzzWRSBQt+sZes9J8wQpC7HNB49ONhkdRHKZLXgMkRAMHMrIPZGVlpfC5JhKJokU/Z24cYLpgBSEeOLdhK6PhUYjpEuKV773rX+XzrLiVxDRlmvj+O/y/SCTyp5yMeScd8ubmmS5aQYh1gpmuCy+80GicisKGDRvEdAmlzsf28sf5PCtu/cQcOsJTTAUmmRGJRCbZfIHs9W77zXTRCkKs07puM6PhUZx//vlG41QUxHQJ0cC+jC39+DwrTh3D6Of0aOYUpjIjES+RyJ922evWmy5aQYh1SsN0rVy5UkyXUOp8YC87i8+z4tQ2Rp3PfzC3MBczMGNiukQif/rbu2m46aIVhFjnxBoNCxgdJ8VhupYtW2ZclhMxXbHCDnrjlpnUuUlrqlauIlUqW54qli1HVdMr0pXNO9AHQ+ZRnjc3rGN50JtD93ceRA2r1KIqZSv4ysXnybUbU1Yvb8jl7svYRtO73EH3cZnVq1S9l8+zcS6pwoRqlPYy6nx+nbmZgdEL9K5HRN/+zfzG/Mn8znzCDGbQLBkJs9aKWcJ8zaD8X5m3mXuYMgyWIaZQVHpab889Lc+W8bqE+KNFENPVrl07o3EqCllZWcZlObnk+HZ8QzWvt1D67J6wia4/5WJKsoJHLSuUSad3hjxL+z3ZQU3SITZSb9/6LNUoF3wsNyx7/DlX09+TNgcvlymfVtZYjgseYaoxqYwbXcLo809grmaaM2mMLhicBxnkfenzOMHv85jyTKh5YWWZ+UywZQCYxdsZLEfMl6h0tN+b/YfpQhaEWOaEGg1MlW4+MF1bt26lVatW0dKlS2n9+vWUk5NjNFNumTdvnnFZTsR0RS+7Rq10ZbZ0kpKSaUWfqbR74ia/BinPm0N9TzrfOH8gLju+Pf00djUd8GYbywV/83JDXWeNVczZTA3GjRF5j1HzImo1hOnC1GJ0w4S/P2P0ZQXjRwbji7k1gOcweYyprED8zBzPOE2iSFT8+sneuNF0IQtCLNOwSm1TZVsAPf8Kf4NmzZpRr169aPLkyTRr1ixasWKF0WCZcGu6ujRrL6YrSrn1jCvzj1Mym6mGlWvRlSecTXe270mTO91AN5zWxWjoq6VXpLcGzTpivAqX+/3IFWyMjk6PsmtVqEYn12pMV5xwFnVu0oaaVjuWkpNTCpQLJncaSD+MWUUHPWbjZTBdfzNouvvYBVOY7kw9JliUCU10etPiWuZGpi2D6JGu9Yy+Tsj9WsdMZUYy6GH5BnOQ0afLZuoywQzRlYzTcOH/ncwrzGoGuWcvH/lOnw4sYxoyiJSJRCWnP+1NGaYLWRBiGTemyw0wYueddx6tWbPGaLR0ZsyYYSzDSa+WHY3rLJQ+155ykc/AtKrdmKaefyPNuHwEze02jpb3mUwbr7mPtl3/EG265n4ae9bVhY7r6A596LPhz9P+jG2Fyv1+5HKf6UJUrE3d5jS540B66vI7ac6VY2lJTw+t6juV1vS9m57tNoYaVK5ZoNwa5SrTv254gn4fv94YSTOYLpipocxApn8QkGt1PoMIU7BIF3LA1DJgcIYzfRiM1aVHp3oxenPft8xtzCAGy7uMuYDpzMCA7WfUtJgPhgpJ+f4GeMUrjpzNiYiqeRhE3m5g+jIwk92YHgyaFV9j1HzIL7uQwXaH2qQpEoWvzfasdnwhS16XEFcgisCnd8Ro1KiRb0gIk9lSPPXUU8Z5nYjpil7eGfwsG6FxtKLvFHruqgm09uq76bVBM+iLOxfTj2NW0y/j1tFPY9bQV3cuofOOO6XAce3U6DR68cbH6fcJ6wuVuzdjK/Xk4z7z8lE0h03c/Ksm0vr+9/nK/mTYIvpu1HLaOWoFfTViCeVc97AvEqaX/fDFQ+mTOxb5csecZfsxXTBcaH5DrhWa0vyBAU7rMCrRPJA+YNQyfmFuZWCcqjP6vEheV9PB5MCc3cQgHwyGCUanKoNcMkTYpjFqevAf5nTGGT2DsBwk4uvTw0DBVMFsXc60YWAEj2UQNcMysK1nMCOYXcxmBubwOEZG7xeVqJL2erZJXpcQR+ygmuWr6pVyROjWrZvRbCmeeOIJ43xOrjv1IsM6C9EAIkk/jllF/3fzU/Q6G6JvRi7zmZqDXiTKH05aB+h9+MLARwsc15bHHEer+06l70Yu9+VwOcvePXEzvX3rbMq+bhr9Z/AsNlorfGUjXwvTY9koF9/1OalTgbLvPLMn/fvmJ33Nl85y/ZguJLc3Y9B8hihUINxEetAUpzcFPsEMYE5l0hkl9CDUo1AvMTBniG6p5jy1PBgo/F2J+YdR8+xmujIwg05DhOWq6cDnDAzXdcy5TH0GZk1tlwLNlRjAFUYMpgwRMKwTplfrIxKVjP6wt7zovJAFIXbZ4evWz6d2xEhOTvblbJnMluKhhx4yzutk4GmXGNZZiBYw/MJv49f7DM4BP3lU4KsRSwsc19NqH09Lennos+GLeb7CpguG6rdx6+nHsWt8vRLxv3MaAFP3fM9JBcq+pc3ltPX6afTruHU+c6ZPH8B0IYoVqSjOdEZfBowOmu9gWvRlYLgKfbpRzLXMSYxuznTB9ODVRc75MA8icLowFISa5gAziUGEC1E9N0n4WFeYLxhA7B8YvmARPpEosvreu/Zu/SIWhNhmB1VIS9cr8EKceuqpvh6M6emBpwMNGzak+fPnG42WjlvTdfPplxnWWYgmVETL9JvivaFzCxzXCxu3pkU9M+jjYYuMpgvksWEyRcGcrOl3d4Gyh7XtTuv730M/sWErJdOFsa9U+cifQn5WR8Y5Cr3TPCGXC70bg+VO9WT0+ZYyzrG/rmf0aRDlUlE0NCEGM1xKWF9Mi+iXRLlEJa+Vk5/ukGfnSF6XECcEN13Dhw/3GaXs7Gxavnw5zZ49m+666y664YYbqGPHjr4XYo8ZM4YWLlxI27ZtK2SwTEyZMsW4LCejz+pjWGch1riqxTkFjutNp3Whpb1sXzL9QT+myy3TLh5SoOyxZ/fzJfKXkunqxOhNhkhYR/SqJePs/Yd3Mqrp/mIwWn17BtGlQMJ6qvkAeiBeyuhDWexg9Gkw6CmaFZ1NnCJR9GufZ+tf+oUsCLHLDr4JFaicCzF27FijcSoKGGbCtCwnYrpKGC/YcRjT72Hw3m0FhwepWbEaPXHZHbT66rvo+1EriB9ijfO55dwGJxco/4GLbqWt1z9UWs2Lixm9fDQtXsEg50qPciHqpZuzDxkk9J/MuBkTS58XSftovkQOlopGfcOo39HjEeuBno76NCJRbOhve8ub+oUsCLFLcNPl9XqNxqko2LZtXJaTKeffYFhnIXyUCeHPJ54jWjWW6PUriHYeT/RDY6IfGzINDn9uH6DNFzowPFm97YJjvDHD2/WgZ68cQ6/cNJ3+mLDROK9bfhi1qoCJwhAST3cdSS/e8Bj9ObFw2cVsujA/xv1SZSPahNf+dGDQ9KebrtMY3Ti9xVzDuF0PfV40Z2LYh0aMmldP5EfiPZo4kcsleVmi2NO3npWPOy9mQYhF/p6wOajpevDBB43GqSiMGzfOuCwn93YeZFzvRAWJ63+N3+g/aT0zh2jqZqJ71hPdv5po3sNE224h+t95RD+xmfJRn+hnl6weY16OBtYJzXnL+2T6uPuCm30DmKalpBY4lumpZcg+73qacflI3/ASX965NGDyvRswPpi+jBtP70LzrxpPbw9+1jf0hHN6g+nCwKho/mvBlGOQjG7CTXQI5ehmKIPB+F4YgsEZvcJ4X/q0uQzG5dKNUyDp8yKqheWo1wthxHv9dwxZgQR6NC3KAKei2NNce/pph+ztktclxDy/jFkT1HQ9+eSTRuNUFNBkaVqWk/svGmxc70Tjx9Gr6KbTLvcZhvSySXRMDYu+zpxO9OQcouWTiP7Vl+iTM46aqlCMVSDePd+4PjrOnConMF89WpxDT3UdQbOuGE1r+t1F/7t9Pv0zaUvQBPxA/DR6dYFzt86RZsuV/abQ1yOWGns8GkwXgEEBGMTUH4gmIRcqkPnKYVSZGMoBg48i1wqDlzrnw5hdujHCK4Z6Mw0YNwZPnxejyCNf60QGpqs1o/+ujCVMmdsEepEounQgM/tv5wUtCLEGbubBTBde8WMyTkXh9ttvNy7Lyawrgkda4pJ71hE9vIToqdm0e/bdNHF0OZo506L/+z+LPvzwMB8xB3861myWIsXbwcdJe/iSocZjp4NzDK8Euu/CQfTh7c/R7okbC+VbhQJeiH1SzUb55ScnJdHwdj1pTrex9MrNaLbcYCzfj+lyC5Lc/Y3+joFFdaPzPKNe+4MImlMY+d1puvCd25wrp+lCb0U1bARyt/Tf32TQhNqYcRNFE4miT/u8Wz9zXtCCEGt8NGyBqpj9smjRIqNxKgoJb7qQsI7mv+lzieY+TLRyAtGL1xC9fw7RD43yo1V7dtWmjz9Ooo8+YpNl4Jsv0s1mKSLUI3r+LvP6a/wwZiVdfXJn6tTodGpfryW1q9eCTjymIdWrdIzPDDmPaX+eFi/L9jf2lhumXnBDgTIv4GXjVUFrrr4rYLNlEUzXHgbRJCS6w9g4heEe9OknMIhcYbR3k9HBiPNO03UVg4T7cE0XBltF86EzioZEe7yCCONtiekSxaa+9KycY7qoBSGWcGO63LxLMVRuvvlm47KcLOwxybjeUY+vFyDz0DKiZ54iWmoTbb2V6LUriT5uR/TjcUGbAf/ZWTOg4QKffZpqnDd82GiB75oTrR1h3jYHGEvrl7Fr6OUbn6CV/SbTsj6ZvgT6xT0zaF638XT1SRdQWkrBl1N3b3Ee7Rq9gvZ7Cr97MRibr3uwQHJ+gyo1afplw+n5Hhn09pA5bKw2+222NJgujF81mcHQDhg81B94PQ8S3U9hTHlRaMLTy1Sv/cHre5IYp5xDSxTFdKHpUzddWEf99x8ZGEAxXaLY1UJ7+mmmi1oQYonXbnlaVcx+2bJli9E4FYUBAwYYl+VkZd+pxvWOCmCqMrOJHn+OaOF9RBvuIPrX1UTvdCb6/PSgpioQf+88xmiynHz+aZpx/sAcMVbI//q4LdHrbAS3DibKyiSaxQbxoSzevtCa/mCefhm7lr4duYy+GZnlG4H+szsW0fu3zac3Bs2kpT09lJ5WpsCxfeLSO2gnG69QIl5v3DyTymgJ+hXKptODnW/1vaPxRTZ9P7P5y/P6X3eD6ULvRfQwxKt0zmPQw88faCpEM6LTuGAMLt3kPMOYXvujC+9L1Od5gQm3eREmD1E4rIcpkR49KqV5URT7Omjn7DVd2IIQK6DbPp/KfsErfXJycozGqSjEhOlSY1Yhv2rWk0QrxxO9cA3Rfy4j+uAsoq9bFslY+WMvmhQ/ChzhUvzxfQ1DGUdMFdjViOi9TkQ7rj+ccD/3UaIn5h1u2vQZq/DzqpwguoSolwIjzeOl03smbfGZoQVXTSxwbJGT9e+bnvQNG+Emv+vTYYuoYply+fOnsPmyzxvgS87fet1DPsMXrDekH9OFCBbyoaowGNrBHxi01JSIrr/OB0n3IxmMm4WkeH8mpzajGyOsB14q7fb9hvq8yNlSPTBVL0n9Rdf7GPyO90tKIr0odnXAzv3ZdGELQqywfcAjqmI2AtPVqlUrOuGEE6h+/fpUr169fPDdiSeeSGeeeSb17duXRo4c6Rte4rnnnqMdO3b4MBku0L17d+PynLxww+PG9Y4YylghaX3RPYcjPm9eeji36vPTiL5vGnFTFYj9P9YN2qSo+OmbyjwPG6tvWrARvJxo0+1E8x8imjH78PZg2IgImqqigFf6/D5+A6Wnls0/tkiuX95nsi8qFiza9eXwJVS9XKWj8yYlkffc62lm15G0tv+99Bn/vjcjeFOlH9OlxumCIUFToD9MQnMeRpNX5eHVPuq1PzBx/oTykCem5oMxcjtkBAZWVfOBtQzm1fPHkMelfodBgxGUISNEsa0vPMuXmi5sQYgV1l19j155RxS8q7FatWpUvXr1QpQte/TmG4gimy5lqgCGV0DC+st9iD5qf9hUfXsC0Q/HFTI/pUHeT/UKGa6PPz7Mli0W3X+/Rf36WdSypUX/GpFBdN8aoqlbzNsdhSASdmLN4woc32e6jqJ3hs6hfYYxtRRfD19K1R0vZc8491qa0XUEre53F304bIEvmuYmWvbr+HV/BDBd4TS9IbFejzo9xiCqZHrtj1NfMfq6oEnSTTRqMKPP9xCDpkn9hdpLGH2a/zBnM4jY+TOQIlF0a7p9l+R1CTFNcZquSPDfIXON610AZawy+aaLpPWNw4je7ny4+Q8J4WhiM5ic0kdrBvylHq1ekUxjx1rUqZNFNWpYVLkyjCuijQX3yUs3TjfvhxigQdVaBbYFTYOv3TLDZ5pM0/86Zi1VSz8a4QJjO/SlGZePoJV9ptL7tz9H/0xC4ry7iN6uiasRAXI26xXFdK1mVFlo0kMvRrz2B7lfwZoJ9XkB3r3oL1Ff17eMmgfRMvWibAxnoQwVXmqNpk413QFGJeqHs50iUXSIL3YZJFWIWeZdNV5VylHJ/4bOK7jOSFx/9lGiHdcdjlRFejDQSIP1Q0/FXY3ZADY73HtxxQSiRxYdNolsFpD/VL/iMcbt10lOSqLPhi8uuD9iiB9GrSzQtFe/Si2a1XU0vX7L02y6Cke6fh6zhiqkHs3hYjdBw9p19w0Nsbz3ZHpv6Hxfc6FbwwV+nrAGCeuRMl2IGullbWP01/4EE961qM+PF1cHi0bByKEpUs2D0ejRnHkug2ZHJczvjKTBcCIyF8oLr7FPTENkiESlo4N2zn7TxS2UHBjgc3FPD63qO5V2jl7pGzjRNJ1QmGg3XR/e9tzR9X1wxeEcK5O5KTWQrM6GCs2UX55M9GEHotwbiBbcT3Sfyqnyfz4il6n9sS2N265TMS2dvrpzqbGM0gDX2PO9PK6b9TD9qA59C2xTrxbn+c6//w5B82LBfKzfxq6lY8pVzZ8WZm3AKRf7IlxZvTJ9EdDdbLgC9VQ08cHohU9weZEyXejtqMpBmXcxyK1Sr+MJJpgZPR8MZaCZ0PlybF3/ZvTp0bSI4SKcETLMjx6SerQLwBhi6Ihg6wdzB/OIno8wquUZN9skEhWvPvEuX2e6uIWSYVkvr+8JmA9FPr1P6kS/j1tnnF4oCBKR9X0XbfzAhjp/fd/taDA9xQ2a//gTzZSIrKHX4mvdiVaPJXr6mfxoVbgJ6zeefplxu3XqVqxO349Ybpy/tHhh4KO+dSuXVtY3Cvw3I5b5kuVN0/46dh3dcvrlBbYpPTWNHrp4qC+R/ss7F9NBz9FEepipmgUMl0X9Tr6AnrpsBC3t7aW3b51Nf03YGLLhAlnDH3JGl4piuvRIEpr8MDYXBj2tybjpgQhjNIdRZYCfmbMYRKN04wWD9iCjT7uLGcp0Y9Cc6Fx/5IYtYvR5wA8MmiP1yJgSzBVeI/R/jNpP/2WQhI+hKELdRyJRZLXCfqy96eIWih90R+dDYKR8Wjptuub+kJoeEpGH+cZn2n/RQr7pQt4WeukVMkVF5UhO1Y8ND0eqYKre7EKUeyPR0ilE09G8qUxVZM+lxy4dZtxmnebV6vnej2mavzR5fVDB8d0QiWp9bHMa2aE3ze8+gVb3m+rj1jZX+H7Tp01JSqYbTr3Ul8+1nc3br/yApF+nmR0LDycC44VyfCQFJiUlhVb2vcs3fITz+h967U14+XQkTBdMkV4O8rNg6NowMC5uBFOFaTGivCoH7GeQkI8cLAywiuZDjMWlT4McLfRIxDLbMaYmSVX+S4w+rwLr/y6zlMFri95hEBnTtwv8i+nJyJATotLX9gFz0w95Ja+rNLj3wlv0isHIta0uot/HoZnHXEai89BFtxr3m6Kb1ZymWOdTb+skamsdSw2tylTBSjNOWxwUGErgw/YOw+SWI8ZqVxOiT9oSvXUJ0Uv9iNaNPDzEwsNotiseY+WP7QMepWQ2H6ZtVpxW+3j6c3x0nruIMqUlFxxl3g1lUtPoOr4mn0IifN8p9Mkdi2i/o2nxrAYnGecNhQ4NTvblvx0enf7wMeWHtL9bWi2deVjhmq47GVUGDNBoBuNsYciHUIwJImKIIunjagVjL/MAg16MiFhhQFV/647yEXnDiPemsoLxHoNtxWuEsI/EdIlKV0SUdMCbs0+vNISS4bJm7U2VRCHKppahp7uO4MrXXE4iM/Hca4z7TPGA1ZnIsn0c8uHN5zPrjgK8ZQ2mHOt6mm1dGZTaVgXj8pwUMF1zpxH92MBhqDRTBRANe68j0b97EW0ecniU9dnTiR5YyWWUnKkKBMacquoYAsEJjMceNgym+aMBGJnP73ieH2o6UzpfX6Zt0ElKsqjtsSfQ1E438rU4kpb3zqR3hsyhvwwvvr7zzF7GMkLh3Aan0IZr7qVvRy3Pb4b827sVzYGI/Oim6yMmHNOlj7H1GQMDdCFTnXHTtKiEaBSaDjHEBIZ1UGX643/MKAbRLzQrIvrkbIp0CkYJg7H2Z15nDjKmshX4HU2KaM4cwmC0eyTq12BC2TaRqHj0oXfZYr3SEEqGJb08pgrDL82r16cdAx8xlpWoBDNdi6we+aYrkjSzqhuXp5OWnFp40MzpzxLtGHB4VPicm4iWZxDN42P62AKiuzbyNNFhrPyBXKTm1RsYt1dxUZO2tN8b+jsJS5q9GVt90aTN1zzgizoPPPVSurBxa2p3bAtqWbMRndfwFLq0aVsaekY3euiiIT6ztaD7BNp4zf2+1wP58rIMxwo5Xav6TqH7LhxE48++msae1e8wZ7vnsUtvp+V9ptCXI5bkm6793myM3A5h4FK8b3EGo15M7WZQUiXkQunGbS6DZPZAr/0JJBimcgwGN+3LPM0g4f0NBkYsl0HzH9YVeWMwQRczaCqFiQxkuJRgvGCasI6IyMFQId8LZW9nNjNoZnycuYPB8BUYb+xyBgn5iJZJIr0oOvSG/fwFzopDKBmOSa9S4IYVDHS7v7RpO19yr6m8ROP2toFHht9mXWc0TUWlplXeuDwdRFAwnIJpvWORvZO2Uus6zY3bqujZsiMbEfP80QiM109jVtP7t8+nl296wpdHuZLNDhLeF/ND0eJeXsrqY9Paq++m7fzAg+jW96NXBOz1CCP269i19MYtM32v99l07QMhs+W6B31DUfwybm3+cn70rF3A+xhCLz8YHORLwVQgcR2mwo15gWCA1DH7hxnGIP8q0Gt/ggnLxnqh5yKMEaJmiGTBEMKI4RPLwPf4HZErTO92nSFEqWDS0ByJ3o4wn3jnJHpMonyYMSzjMgaRLbwaCeON4fVHEuESRY8+nrC0Jj9NSV5XKfDHuPV05rEnFrhxuaFSmfL0eJc7jGUmEoPbXGHcP4oPrNuMpqmo1LCOjr/kD3SGiBfThd55beu2MG6nYmi77jFluBR59uF3LP45cSP9NHYNfTtyua9H4mfDn6fPma9GLKFdo1fS7+PX+0xasFf+gAPebNo9YaPPNOG9jaGC+RBJ05f1onc2ojcQjAoiUmgKxICieF1PKLlKfzDquL3PoFznOFnhCuYGUa9qDAzPcQxeVI1P/I/vse5FMUGYF2VgfWE20fMRw0jANGIZ2CeVGDR7hmsiRaLiE99Gkvnp7KBeaQglx0FvLr1845NspNIL3MTcgKae7/kmYSo3EQhmuv6xJhlNU1FxY7qqp1eKC9OFXMIOQZLDvR0HxsX4cogqwYTB7MBo+j4Zf8NJuAFlhoqpnDkZjyL/SRfMVyiRIqgtozctYmwuNMOdyER6EFGYI5geRXFEm1Cmvhz8Heo+EYlKXp96l2eZLnSh5EAvqGmXBO6NZwJd2Ee075mQg6oGM10gxUqmclZqPui9WM1K9xmn+6wLjaYqGCmOYQRMxIvp6nniucbtUzxy6TC/RkGIDIc7O1EkTMvLjDp2uxkkmqOJDs19xWGKRCKRST9NXnuh6WIXSh6Yp8uadaCkIF3yC5Fk0VuDZxnLjFfcmK5g8GMxXWg1pm+tEUaDZSLZhemqV+mY/CToWGXGZXcatw1gyIiF3Sca5xMiy35vzi92ZEzRL4w6hhipHa/9ac8EenWPSCSKtF4b/2wTGa8rusBrU1rUaFjgRueGDvVPot8SZET7SJgune+tkUaT5SQRTNfbg2f7HYsrPS2Nsq9/2DifEHkOZOZiuIhICEnlSDjH2FUYtgF/IylfevaJRCUpe7udesCbs8d0wQulB/JpFvf0UsPKtYw3P3+UTU2jNVffYywznoik6UqzUulda6jRZOkctDxo5zGWodOoSu2YNV0/jFpFlcuYe2ii2RQvazbNJxQPP0/akM37PhJCwj0Sz/Fi6vMZ9AJEQrpEuUSiktaX3pUrTRe8UPqgyXFZr8l0cs3GxhuhP7ocfybtGrnCWGY8ECnTVdVKp9VWP6PJcvK3NcGV6WpWvV5M5tnhDQhNq9Q1bhPM/w+jMFCreV6heHjZ+ywGFI2EYK6QMA+jhV6PGIJBcrlEotLQTntdP9MFL0QPuIlvu26ab3RsPmSuqFy2PC3q4TGWF+sEM10YMuIj6/Z8tlrX0WNWF7rdapfPU9ZltJuNlMlgmXBrujCYbayZrt0TNlHr2uaxuE6o3kBexF5KPG8/iYhUJAXzpRCJRKWhHRmzTuSbRJ7poheiC/QW23rtg3RGCOar6/EdaFecRSluPK2LcVsVBy2v0TgVhb+s8a5MV6taTWKqVx8GPz3/uNON24L3KP4Txa/1iWfyPKiTccqJRKK40qBBg9IO2jn/mC58ITrBTT33+ofp1NpNjTdLJxXS0n2vM4mXLv79W11o3E5FcYzT9aM1Ou5M1wFPDnVrfrZxO85peEqhlzoLJcdBT+4+8nWyFYlEcadvvWvXmy58IbrBzf3Vm2fQJU3bGW+cTs5t2ApP0MayYolgpmsXGySTcSoKbk1Xm2NP4ONiXu9oAoN/dm12lnEb7rnwFjoYJwY9VsmzczGelkgkikf9mblpsOnCF2ID3OQ/H76EBre+0ngT1amSXp7evvVZYzmxQjSbrnb1Tox604XBWy9pUtiopyQl0b9ueMI4j1Cy/ObZ/B4fE5FIFI/aMvGZ0ySvKz7Aex0fuGhwoRuqDl6gPaxdD+P8sUBpmK4vrDviwnQhyb9jo9MKrXeLY46jn8esNs4jlDyvep+7m4+LSCSKV+33bpO8rjgCL99d3juTyqX5f7djk2p1ac+krcb5o5nSMF2fuzRdndjQmNY5Wmhn6IQx4Zxr4+LVRfHE/PEPdOBjIxKJ4lU7vRu2mS5+IbZB3tema+6nmuWqFLrZgrSUFHrpxthqUgpmur63RhmNU1GID9O1g5K0UfXR1Pzm4NmG6YTSJqt3Fl7kLBKJ4lW/e9aPN138QnyAZqX5V02kmuXN5mtypxtovyfbOG+0Ecx0vedihPlQ+dC6zfe+RtPydC5s0sa4ztFCm7onUJ0K1ajTcafRQY9Et6KTHWRbNnt8kUgUt9rmmdP2kC3vYYx3YL7uv3Aw1ShXuZBh6HvSBXQwBgb2LA3T9a41xJXp6tKsnXGdowXkm+EcMP0mRAmZO3AuiUSiOFfyPm/2H8ZKQIg7MCjmpHOvLfSuvVh4abaYLiGe+Stj4898LolEonjXr/amXFMlIMQvv45dS3ee2YsaVK5JkzvdaJwm2riyuXl8KUVxmK63rMGuTNfA0y4xrrMguOUdz/Oz+VwSiUTxrt89G+4zVQJC/BNLTU7BTNc71q1G41QUXrVuNi7LiZguoahs88zsyeeSSCSKd22255yVZ+dIXpcQ1QQzXTusgUbjVBTcmq7b2nYzrrMguOWzCWtq87kkEokSQEn7vdl/mioCQYgWotl0jT27n3GdBcEtG69ZUJnPJZFIlAj607vlVVNFIAjRQmmYrhxrgHFZTsR0CUVjB80cNDONzyWRSJQI+sFe97C5MhBKG4yr1LxGfapevjKdUquJb+BT03Q6r9/ytG9sLszz7JVjjNO45Y4ze/rKObZiDfpuxDLjNCVBaZiuLda1xmU5eejiIcZ1FgQ37PNslhddi0SJpFWTnzn3kL1d8rqKwAHPNpp75TiqWaEKJSUl+Sibmkb3Xngz7c0IfwDSvyZsLDCiuJt3/M29alz+9HecWbT3LXZocFJ+We8NnWecpiQIZrpyrOtpv5VBBy0P4zWaqFBZZ11tXJaTaRcPNa6zILjhI2/WUj6PRCJRIumAnb3bVCEIwXntlqcLGCMT4fYUFNN1mGCmC0M7HIYNL5N8hLZWPepgNaCRVgfKsnrTF9Zw+tEaTYdcGLMlVk/jspxMv+xO4zoLghte9S68hc8jkUiUSPrHu/V/pgpBCMwHtz1X4AaclpJKzY9pSK3rNqfGVevyd4cNU7gvFxbTdZhgpitUOlj16XdrnNFsKRZY3Y3zOlnQfaJxnQXBDX9O2NiSzyORSJRI+t6z5hlThSD4B0aqanqF/JtvjfTK9OagWfnGCNEt/H9CjQY8rTnS9feETfTzmDV+I2FuTZc+qnxRTBdyxv4avyH/fzem66An27cN+nyRpnOTNvnrESkGWa3pkMFsKZ6wuhjncyKmSygKb01cWo/PI5FIlEhaNPmJDnxDl7yuEPh42IICN9+XbnjcOJ3TUO3L2Eb3dR5M9SvXzG8Os5KSqMeJ59LrNz9dYNpApgum794Lb/G9UxHT1ChfmeyOA2jG5SPyp3drur65M4u6nXC2LxctOSmZTq/TjLZd95Bf04VtePSSoXRaneMP57Ad2Q4k/Wf1svNN5sZr7qMTjmno40lDM9x9Fw7y/dacjelfbECdvys6NTotfz0ixb3WhUazpZhidTLO50RMlxA+O2j1mPsr8XkkEokSTQfsnL3mikEwcd0pnfNvvCeycXCTt/Xj6FV0aq2mBW7aOslsYDZec3/+9IFM19UnX1BgXkW19Ir5f7sxXXsmbaXq6ZUKlAFSkpOpYply+f/rpqtZ9XoFpnWysPsk33TvDZmb/91xVeoU2keN+Dv1++4SNF0XW03pQJC8rgnWOcZ5nYjpEsJlrzd7NxFf4iKRKPG0PzPnG1PFIJhB/hbvNh9XnHCWcRon/TWj1KJGQ5rXbZzPoJylRZQqsdFR5sSf6Trgzcn/DvRq2ZHu7zzIN7SD/r0b0zW6Q9/86ZOSk2jiOdfQ7W2vKlAO0E1XhbR0n1G754KbKHfAI/R/Nz1FU8+/KX9a7JuDR/LYUpJSfN8lJSXTl8OX5JfxPpenpm9a7Vi/TacgmOlqZFWjplZ1StH2lYl0K5XutNrTPstjNFo6Q60zjGU4Wd//PuM6C0Iwvvau2sLnkEgkSkR951m12FQxCGYQleLd5sPNAJnfjliGR1rf9JXKlKdfx6zJ/+2gN5uqahGqHQMf833vz3QNbnNF/nfdTjiH8o58//u49QUiaW5MV13NqL07ZG7+9y8OeCz/e6Cbri+HL6YDnsJDYTStemz+9L8fyTMbcOol+d/d3Pqy/GknnntN/vebteieiWCmC0YK+VnolfiTNdr3Auzt1gBaavXygb/f5+/2WZOMBsvE1VYr47KcbLn2QeM6C0Iw3vcu8/A5JBKJElFzPI+2NVUMghnddHnOu844jc6bg57Jn77XiR0LRXaGnHFl/u8Y3wvf+TNdDavWyv/u7cGzC5Qzp9vY/N+Cm64dlJJ8OBIFnOvUvkHL/N/8JdKjjH2ebfTWrbOoWfX6+dP/PGa17/c/JqzP/65B5Vr5UbyTajY+Ou3YtVp5hXFjukzGqSj0so5GHwMhpksIlz2TNnXmc0gkEiWqDtm5+02Vg1AY3XRde8pFxml0nrxseP70d7bvVeh3NDWq33u0ONf3nT/TVals+cPf8Toc8BQcjiKU3otfDF+cP20qmy/n74F6L2IYh+rlKvvmU9PoKNMFyqYebYrFiPmf83JV1K9dvRMLmT0npWG6OlmNjMtyIqZLCJc37aUyXIRIlMg66M35y1Q5CIXpcny7/Btv8+r1gybS66brtrbdCv3+8CVD838f0b6377ugpotBIrxeTiim69M7FuVPC5y/+zNdx5Svkv99mZQ0nq4ljTmrL9UsXzX/e910Lew+Mf/7a1tdRA9fPCT//00ucqJKw3Sdbh1N8g+EmC4hPHbQ83c8WpvPIZFIlKj6OCNrtbmCEJy8OXhmgZvvwu4Zxun2Tdri+3xnyLP508JEON+jeG6Dk/N/X9l7iu87f6arRvmjvQ2X9Z5coJzHLr0t/zc3zYsq4gR044ghKU6udbQJUJmu38YdbS5sdyyiVEfnaVWrSf5vuun6Y9yG/O3A0BZt6jY7Ol2QpkVQGqarpXW0CTcQbw2eZVxnQQjEvknZ+/j8EYlEiaynPPe2MVUQQmGQSF6hTHqBG/CcbuN8w0LsnriJfuDPp7uOpJSkZPpl7Gr6duTyAgbqtZtn5Jf18e0L8ntDpqeUoYNBei+OPqtf/neNq9ZhU7PeNzYWoi4Y6kH95iaRvn7lo+YCL2/Gdv3DRvHm0y/P/x4o07Wh/7353+kRu1/HrKXaFarl/6abLtDxuFPzf1Nc3LRt/jYF4rzjTik0r05xmK5a1tGBbwMhpksIh++9a/+Pzx+RSJToOmTnyiCpLnl36FxK1kwOOPoOwKPf7Ry9wjf9UG0oBvzepNqxVK/yMfnfAQxwqsr3Z7qcESrf8lSOGX9igFP87cZ0YXmqHF9ZPL8qS8/XUqZrvzc7/3cYRTQr2p0GUOWyBU2K03Qhl0v/Hazqe1eBafzR5tjmhebVKQ7TVckqa1yWEzFdQjh86V01jc8fkUiU6Mqzcw+aKgnBzMs3PkkNtWiRk9Z1muU32/05YQOd09B/1KaHo1ejf9O1nZb1mXzUaB2hfFo6Le7p9Y12j//dmC6U2bVZhwLlgJNrNqLne3jy/9dzum46vfArcjC+WN+Tzs//32m6/pm4mdfvqJFJZWOov74oEKVhuvDCbNOynIjpEsLhD3vz9Xz+iESiRNeX3pWbTZWE4J8DGdm0qf/9NKJ9L+rJxum6Uy4mT8fr6D+DnmFTUzB3C/9vH/AIDW5zJXVvca4PjFn17pA5BaZTzL5yDD126TB67qrCI5+/x/Pc0uZyXxnDz+yZP/jogu6TfPM4h5PwB4zXwh4ZvnKw/o9deruvufKnMWt85TzKwDDq82y+5kG69YzD23B7u+701fCl9P2o5b7pn+hyB+0zjOP1iJZvdmXzswuYyECUtOnaa2W4Nl1f3LnYuM5CYH4Zs5b+deMTNOPyO30PB4qbTr+MLj2+nW/4EdCu/ol0/WkXU1bvzELXUizzrmfh2Xz+iESiRNemSTM6mSoJwR1ujQTAtKFM749IlAHCWR+30yPah3c18inmY0Wfw50F3FDSpmu3NZFNl3lZTmA0Teuc2OygnSNX0L9vepKeYlN1U+vLfPl7Z9Zv6Xv1E/Ic9QiuW244vUvQXsKxwppRjzfmbRKJRImuD8asrpTnlbwuIbIgCqfy0NJTywR816KTkjZdv1njxHS5Ygd9P3I5LenlpdFn9aELm7ShRlWVqTLvr6Lyzcgsw3rEFgc9Ofu323Yqb49IJEp08W0nWfK6hEiDdzry6eUDg7+GElEradP1gzVKTJePHUSZO+ibEVn07tA59NDFt/rGpzuhRgNfr9eqZY++uqqkeO6qCYb1jC1+9m58l7dFJBKJDutT77K1pspCEMLl8UvvoBtPv4zuOLMnfXNnaNGKkjZdO62RCWO6vh6xlGZfMZqGtu1GZ9Y/kU6p3YSaVj+W6lSsQZW1QXijhf8Metq4HbHEd97VC3hbRCKR6LDen/z85abKQhBKg5I2XV9Yw103jx3wFnwNUyzx9OUjCvWAjXb+nui+WTpaOejZOpq3RSQSiQ7rA/v5Yw9JXpcQJZS06frIOtrLMhgHY9h0DW/X07hN0crDlwwxbkes8b+Ji7vx9ohEItFh2dvt1IPy8mshSghmujKs84zmKVw+SBDThbw6DPHRsEotqlWhGlUrV5kqppWjMimpBTBttxMMlOucrwCpqVSxTDmqml7J96J0J7UrVKdm1etRjxPPLcQd7brTh7c9Z9yGWGR9xqwTeZ+JRCLRUX1uL19pqjAEoaQJZrrutzobzVO4vGkNNi7HRCybLicYBwtDMmCMNicfsOl59eYZhfjgtgXG6U2gbN8yDJjWJx7h/XDosUsfK8vnjkgkEh3VV/ayPqZKQxBKmmCma7Z1hdE8hYtb05WcnBRXpksofn7zbP6Iz50kRiQSiY7qbXtxc34ClbwuodQJZrpWWH3yDdMua1Q+n1nDmDsKGCo3vGbdbFyOEzSbiekSQuHnzA0b+NwRiUSigrJtu0yeN2ePqeIQoo0d+fw6dh19cvtCevnG6a6IhXcHBjNd6GnoD7zO5xqrFc20rqDXrVtojzXRaLR0/m3dZFyOEzFdQqjs8Wx5iM8dkUgkKqzvvGvXmSoOoSTYQXsmbaHPhi2iLdc9SHO7jaN7L7yZRp/Vl/qdfD6d1eBkannMcb4EZLxSpSBmk+CPPidfwOYhevNqMBinab3DIc1KptOs2vQaGyuT4QIvWTcY53UipksIlS8nLb+Jzx2RSCQqrJ/t9QNNFYcQKjt8icQf3DY/H0SYVvadQvd3HkQ3nt7FN9L3xU3PoFNqN6U6bKQqlSnvM0+hGqhw+WfiZsN6RweRNF2KE61j6JDBcIHt1gDjPE7EdAmhsn7KrDZ87ohEIlFhvWovPC1P8rrCAlGqK5q390WiqqVXLDHzFA7D2/c2bkO0UBymC/xojTaarrVWP+P0TjAEQp6YLiEEpg+dXpHPHZFIJCqs3r17l9nvzZbxukLkz/EbqXq5SsYbdWnS4piG5Dnvenpz8Cz6fPhi2jlqBf01YaNxG6KJSJuu6lY6vW0NNhousNhyN2iomC4hFP7ybPnWtqxkPndEIpHIrO/tdVtNFYjgn34nXWC8SZcU9SvVpHndxtF3o5bRz2PWsAncQPs824zrGgtE0nQhqX6PNclothTPWVcZ53UipksIhd8yN/+bzxuRSCTyrz+8m4abKhDBPw0q1zTepCMJmitTk1MoPbUMXdG8Ay3qPsmXX4QBKE3rFMsEM11TrAvorgAstHrQH9Z4OmR5jSbLySPWJcblOBHTJYTCfk/2Qj5vRCKRyL9emjKvjYzXFRp1KlY33qTDBS8lRl5Ygyq1fT0X1/e/x9fb8PAI3+Z1iCeCma5dfnKzwmWadbFxOU7Q2UFMl+CWTzKWT+DzRiQSifzLtu3kA57sfaZKRDBz/anubtr+SGaThQT8VrWb0KgOfeiH0aviMoLllmCm60PrdqN5Cpfx1tnG5TipUa4ym67EPS5CaKz3PH0+nzcikUgUWD/ZG3aYKhHBDN4ld0bdE4w3ap2qZStSm7rN6ZyGrejKE86izI4D6KUbH/fdyBMliuWGYKYLg5mazFO4jLY6GJfjREyX4Ba+ng8tHTGrOp83IpFIFFh/eDdMNlUkgn9gmpb28tKAUy+mrs070C2tL6fJnQbSzK4jaUP/++ibEcuOGCsxV8EIZro2WP2N5ilcbrBOMy7HiZguwS17PNt+4XNLei6KRKLg2mzPOUvyusJHTFXRCGa6FljdjeYpXMR0CZFmt2fL//icSWJEIpEosHr37p2yz7ttt6kyEYTiJpjpQuK7yTyFy2XW8cblOEGHiUTOtRPcs9+bncPnjEgkErkTxpgxVSaCUNwEM13jrLON5ilc3JquuhVriOkSXPGVZ6W86FokErnXb94Nj5kqE0EoboKZLjQHmsxTuLS1jjUux4mYLsEtOfasHnzOiEQikTuts2d1yrNzJK9LKHHqBxlstpd1ktE8hUtrq65xOU7EdAluecp+qhafMyKRSORe+zzb/jFVKIJQnNSrdIzR9Cgut5oZzVO4HGtVNi7HiZguwQ0HvNm7ySLpuSgSiULTX/aWN02ViiAUJ8FMV0frODpkME/hUtdy97LyhlVq+4b8MK2zICj2erO/4fNFei6KRKLQ9Ld343xTpSIIxUkw04UcrEiarrJWqnE5TsR0CW44YGf/l88XkUgkCk1r7GcuOGRvl7wuoUQJZrpOtmq6fpm1G5KtJONynIjpEtzwTcaqeXy+iEQiUeg64M3eY6pYBKG4CGa6GltVKS9CpgvmTUyXEEm2e2fdwOeLSCQSha593m2fmCoWQSgugpmuWlb5iJku4NZ0Nal2rJguISgzx93XkM8XkUgkCl0/etYuMFUsglBcBDNdaVYKTbTOpQzrPB/9rJPpPKtRPhdYjWmU1cH320qrD+21MoxmS+HWdDWrUZ9Nl3mdBQEc9ObsI1veuSgSicLUsslPXyg3GqEkCWa6QuUOq53RbCnKWWnG+ZyI6RKCsd+T/QefK9JzUSQSha2kw09v5kpGECJNpE0XIlmrrL5GwwXcDhkhpksIxsHMnJ18rohEIlH42m9n/2iqYAShOIi06QJDrbZGwwXEdAmRYpdnzRY+V0QikSh8feVZscpUwQhCcRBp04XE+2+tEUbDBdyarpNrNTauryAotntnjeBzRSQSicLXbM8jHUwVjCAUB25MV5KPJF/TIT4P/1+QKlY6LbF60sEgPR3dvntRTJcQjKcyppzA54pIJBIVTYcyc/NMlYwgRJpgpqu8lcpGypNvmjA6PcbbcqIbq0DEuunaM2kLfT9qOf05foPxd6FkyPPmHiJ0hhWJRKKi6qCds99U0QhCpKmRXsVoenSCRa9CIdZNV9Oq9fLX8dPhzxunEYqfPE9unm1ZYrpEIlHR9bVn5TZTRSMIkWUHVS5ToYDZMfGzNcZooMLhYqupcRlOotV01a5QLX8dk5OSafN1DxinE4qXPG/uAT4GIpFIVHRl2dPPMVU0ghBZ3JmuL607C5mncLnMOt64DCfRaro2XXM/pSan5K9nclISPd11pHFaofj4ybNeXnQtEokiI65UUg/ZyFkwVziCEBncma73rKFGAxUOsW66wMIeGYQOBfr6juzQh/Z5so3TC5HnZXv+PbzfRSKRKAIiSsqzcw+aKhtBiBzuTNer1s1GAxUOPa0TjctwEs2mCzx26W2F1rlVzcb02TDJ8yoJsjxPteF9LhKJRJHRV96VOabKRhAiR8mbrhus04zLcNKqdhPD+kYXUzrdUGi9y6el06wrxxinFyLHxmEby/L+FolEosjoFXvupabKRhAiR/SartZ1mxnWN7o45M31NSua1r9LszPpn0mbjPMJRWUHUceOqbyfRSKRKDL6fdrm6pLXFf/8PWETzek2lr4cvsT4e/EipquoHPDm0I2ndTFuQ41ylendoXON8wlFgU2Xb0xekUgkipBs206VvK745fuRy6lD/Zb5PeGSkpJo5+iVxmmLj5I3XeOts43LcBIrpgvAeHVt1t64HTiud5zZ3TifEB6/eDZ9yftWJBKJIquvvauzTZWOEJugOeqdwbOpWrmKxpvzD6NXG+crPsR0RQq8nPucBq2M2wIqlS1PeyduMc4rhMZb3uef5H0qEolEkdV/vYt6myodIfb4esRSOqa8efT3OhWr03cjlhvnK17cma6PrWFGAxUO8Wq6wCE7l85reKpxe0BycjKt6jfVN51pfsEdL9rPduX9KRKJRJHVB/aqRpLXFdv8MHoV9W3ZyXgTTktJpZHte2N0beO8xY870/VVBAdHfcS6xLgMJ7FougAMVcfjAuet9Wh5Hv0xQd7dGC5/T1xXj/ejSCQSRVa2bZc56M3ZZ6p4hOjm74mb6YlL76Ay2ujlOs2r16d3b51jnLfkcGe6frPGGQ1UOMS76QIwXp2CGC+8Tuj1m582zi8E5q3hq6ryPhSJRKLI62vvqvWmikeIThC1WtY7k+po7+jTwWtjBp7WhfZ7thnnL1ncma68CL7wOhFMF4Dx6nL8mcZt08nsNID2ZkTDuRAr7KAsO6sM7zuRSCSKvL7OXHWTufIRoo1Xb55BbY89wXhzBWhOnNttHN+QzfOXPMFNVwUrLaKma451pXE5TmLddAEYr/4ndzZun07rOs3pq+FLjWUIBdnt2fwj7zORSCQqHr2TsbBVnuR1RTV7Jm7xO1aTolb5qvT+0PnG+UuP4KarrlUxoqZrsdXTuBwn8WC6AAz2oDZXGLdRB4b8mStGG8sQjvKxvWwJ7y+RSCQqHj02bFhZyeuKXp7v6fHbK1HRs2Un2jspGocLCG66TrJq0qEImq5lVm/jcpzEi+kCMF4Tz73WuJ1OLm/ewRchM5UjbKe3Ji0ZzPtJJBKJik/fe9dsMVVAQumBRPkz6vpvSlQgepEXtTfR4KbrLKsBmy6zgQqH7dYA43KcxJPpAjBSc7qNM26rk7qVqtO7Q+cZy0l0fsvYeDrvI5FIJCo+/eJdN8RUAQmlw6RzrqEyKanGG6aibHIavTck2l8BE9x0dbWaG81TuLxi3WRcjpN4M12Kbdc9ZNxeJ3hTwdNdRxrLSGRenrTwON4/IpFIVHx6e/LzZ0peV+nz4W3PUbX0SsabpM5JtRr73qloKiO6CG66rrFOMZqncMHo9qblOOnavL1hfeOD/w2ZR2lJycbt1kmykujm1l2MZSQmO2j2mDGVeN+IRCJR8WnQoEFped6cA+aKSChu9mVspR4tzjHeGHVwk7zulEuiuDnRSXDTBZICkMzb3M06gb5xOYDqm9Zg4zKcxLPpAj+OXkW1y1c1bruTM449IUpzAkuWvZ4tf/H+EIlEouLXD971OaaKSCg+kIfz0o2PU7nUssaboU5Kcgo9ePGtxnKiF3emyw0pVgq9Yd1iNFo6H1i3Ged3Eu+mC/wzaTOddEwj4/Y7OaZcFfpuxDJjOYnCl/bqtbwvRCKRqPj1p3fDBFNFJBQPf03YSANOdTeQZ8Uy5Wj7gEeN5UQ3kTNdoKpVln61xhrNluJTa5gvQmaaXycRTBfAS9AvbNzauA+cpCYl05uDZxvLSQQ+9iz38n4QiUSi4tdL9tz2hySvq0RY2+8uKpMcOFFecVrt4+n3seuN5UQ/kTVd9a1K9FqQaNeX1nBKNszrJFFMF/ANotoq+CCqinX97zWWE+/snrTxYt5+kUgkKn7Ztp2+35u911QZCZHhk9sX0HkNTzXe6Ezc0vqKUnxZdSSIjOlCLts1VivaY00yGi2dndZIMV0GMJbXsDPdDRwLnusx0VhOPPNmxpJTedtFIpGoZPSrd+PLpspIKBpIUh57Vj9K8/NyaidJycmU1TvTWFZsEdh0IUn+PWsIrbb60b3WhTTVOr8A863u9II1kL62Rrgey+sXa6yYrgB4O7obxwxgrDhTGfHJDnp2wt01ebtFIpGoZPS7d+P95gpJCJcF3SdSLT8vpzZRpWwFeufWeMmrCWy60q1UOhjB0ejBH9Z4MV1BmHH5SOM+cbLpmvuN88cj+zKy9/BGJ/F2i0QiUcloq2d+xzw7R/K6IgDGSmpdu1mhG1kgTqnVhH4YtdJYXmwS2HRVs9Ij+t5FgCZIRNBMy9NJZNMFFnbPMO4Xne0DHzHOG4/sylz3Am+zSCQSlZx69+6dss+T/bepUhLc8/JN06lMSprxRuaP3i070e6JsTDgaSgENl2Rftm1QkyXO9b3v9e4bxT7PNuM88Uj33hWTedtFolEopLV797Nb5kqJcEdf0/a7HtFD+9KV6SlpFDOgEdiaMDTUAhsuppY1SL6smtFFSvduDwdMV2HeWngE8b9c3HTM4zTxyv8wDOQt1skEolKVnu9m2eZKiXBHe/fNt94EzPRtXkH2u/JNpYTHwQ2XU2LyXTVsvwvUyGm6yj7MrbRLa0vp6SkZEpmJp17rXG6eOY/9sLz+LwQiUSiktVqe2bnPHu75HWFycfDFhhv8jqVy5ant2+dY5w/vigd03WSVcu4PB0xXYJO1riZDfm8EIlEopLXAW/2HlPFJATngCebKqT5b97qcny7GB97KxRKx3SdYzU0Lk/nljaXG9ZXSET2ZWTv45NCei6KRKLS0d/erf8zVU6CO/5901NUNrVgXleditXohYGPG6ePX0rHdF1sNTUuT0dMl6D42bPxLT4nRCKRqHT0q3fdUlPlJLhn56iVNPzMHnTdKRfRs1eMpb2Tthqni29Kx3T1sk4yLk9HTJeg2Oldu4DPCZFIJCodrfXM7HJI8rqEIhPYdLWwarDpMhunojDUOsO4PB0xXYLiT8+miXxOiEQiUakp+YA3R97DKBSRwKbrFKt2sZiuMdZZxuXpiOkSFG97llzB54RIJBKVnvbZ2V+bKihBcE9g09XWqlcspstrdTQuT0dMl6BYPWFGSz4nRCKRqPS007NqjamCEgT3BDZd6GVoMk1F5Qmri3F5OmK6BHDQk31gu709lc8JkUgkKj2tnvz05aZKShDcE9h0XWQ1NZqmorLI6mFcno6YLgH84d3yKZ8QMlyESCQqfR305hwwVVSC4I7ApgtDO5hMU1FZZvU2Lk9HTJcAfs3csIHPB5FIJCp9HbBzfjdVVILgjtIxXeusq43L0xHTJYAD3pwn+HwQiUSi0te3nlWbTBWVILijdExXjjXAuDwdMV0C+MDOkhddi0Si6NCsSQ92MlVUguCO0jFdL1o3GJenI6ZLACvtGe34fBCJRKLokAySKoRPYNPVzKpOG6z+tMMaSEusnnS3dUEB5lndabs1gL6xRhjNlT9es24xLk9HTJeQ5809uHHYxrJ8PohEIlF0KM/OPWiqsAQhOIFNl1uSmA5WffrVGms0WU7etYb45jGVpRh39tWG9RUSid3eLd/alp3M54NIJBJFh77xrnrBVGEJQnAiY7oUTayq9Ls1zmi0dD6xbie+kxrLUHg7Xm9YXyGR+DNzy7/5XBCJRKLo0TrPU5eYKixBCE5kTRfobbUMOor9V9adYrqEoOzJ2JrF54JIJBJFj8heW/6QnSt5XUIYRNZ0JVtJtNTqbTRaOj9ao8V0CUH50JM1ns8FkUgkih5lZWWlSF6XEB6BTdd9VmdfEv1a62rKsM6lzlYTqmqlF5oOZmuE1d4XwTKZLCdiugQ3rLNndOJzQSQSiaJL32asftFUaQlCYAKbru+sUQXMEpoNwV4rg3ZbE338zYT6Uuw/rHFiuoSgPDjqwQp8LohEIlF06d/2nB6mSksQAhPYdL1pDTaapqLytzVBTJcQkD2erb/yucKniUgkEkWZvrCz6khelxA6gU3XJutao2kqKmK6hGD87d36IZ8HIpFIFH2ys+wyefLyayFkApuuVVY/o2kqKmK6hGAc9Gbv4PNAJBKJolPfetbIeF1CiAQ2Xc9Z3Y2mqagctDxiuoSAfO5Z8RCfByKRSBSd+igj63pT5SUI/ikd0wXQ49G0TIWYrsRmo+fpK/g8EIlEoujUBxlLT5C8LiE0xHQJ0QfXY7R02qzqfB6IRCJRdMq27fSD3tx9pkpMEMyI6RKij/3enN18jkjPRZFIFN363l6Xa6rEBMFM6ZmuylYZ4zIVw9v3MKyvkAjs827byedAEiMSiUTRq53e1beZKjFBMFN6pquGVc64TMUtbS43rK+QCBz05nzE54BIJBJFt963V7TOk7wuwTViuoTo4wvPyuf4HBCJRKLo1mPDhpXN8+bmmSoyQTBRr9IxRtMDxHQJpcEm78zr+BwQiUSi6Ncu77ocU0UmCCZKy3Qdb1U3LlMhpitxmT76gTp8DohEIlH067fMTWNMFZkgmAhkuuZaVxkNUyRoJqZLMJBn5+4ndG4ViUSiWNDb9qJzZLwuwS2BTNd9VmejYYoEYroEEwft3N18/KXnokgkig1NGzGi3AFvjozXJbgikOkaZZ1lNEyRQEyXYOKgN+dnPv4ikUgUO/rJu/4lU4UmCE4Cma5rrVPyTdKv1lh6xxqczy5rVAETFSpnWPWMy1SI6UpMvslYvZWPv0gkEsWOfrM3TjFVaILg5LgqtY2mB7RjY/SodSl1shpTkuM3/N/Wqk9zrW60z8owGqtAnMnz6uU5EdOVmGR7n7mNj79IJBLFjnI9cy+U8boEN5xQo4HR9IRCNSudVlh9jObKH2K6BBOzJz14HB9/kUgkih3ZA+z0g57s/aZKTRB0ImG6AN6leKfVgQ4ZDJYJMV2CGXnnokgkikH96t30urlSE4SjRMp0gSpWGfrTmmA0WU4usY43lqEQ05WI7OBzQ3ouikSiGNQ/mVueMFdsgnCUSEa61lpXFzJX/uhiNTOWo+jfqrNxfYU4JnMHjr1IJBLFnjZPnnOR5HUJwSiq6Uqxkul2qx39YY03mit/BDNdXZu3N66vEL/s9K55i4+9SCQSxaYO2jmS1yUEJJDputhq6svRCobJVAVDTJfg5CV7biYfe5FIJIpN7c7c+q6pchMERZtjmxtNDzjHamg0TJGgv9XKuEyFmK7EY5P9dGs+9iKRSBSb+t2zaYGpchMEhZguIVr42F5QmY+9SCQSxaa2TH62yyF7u+R1CX4JZLo6WA2MhikSiOkSCrKDttt2Oh97kUgkik317t075aA3Z4+5khOEwKarjXVs2DlbwRDTJRQgcwfZMkaXSCSKdf3j3fqZsZITBKa0TNcwq51xmQoxXYnFr96NH/NxF4lEotjWX94Na0yVnCCAQKbrJKummC6hRHjb+/yTfNxFIpEotrUuY+aVhwyVnCCAQKarpZguoYR4x7O4Cx93kUgkinkl5Xlz9pkqOkHo1Og0o+kBza0abLq8RtNUVMR0CTq/j1/fhI+7SCQSxb72Z2bvNFV0ghDIdDW1qonpEkqEV8evrMHHXSQSiWJfv3k3vGiq6ARBTJdQ+uygx4Y9VpaPu0gkEsW+VnqmdzNXdkKiE8h0HWtVorxSMl2XNTvTuL5C/PGLZ/MXfMxFIpEofpTn3Z5nqvCExCZaTVfrus2M6yvEH5/Yy5/nYy4SiUTxo4N2zj+mCk9IbAKZrlpWeTFdQrHzsTfrBj7mIpFIFD/61rPqBVOFJyQ2nZu0MZoeUM1KF9MlFDt/TFzTno+5SCQSxY+We57oaarwhMTmyuZnGU0PENMllAQvjHquMR9zkUgkii8dsnPl5ddCAQKZrnQrlQ6K6RKKlR20YJhdmY+5SCQSxZfy7NyD5opPSFTEdAmlyd+eLT/y8RaJRKL40/fe1a+YKj4hcQlkulKsZDFdQrHyrXf1Bj7eIpFIFH/Kzph5laniExKXQKYLfGWNMJqmoiKmSwCfe1Zm8PEWiUSi+NPXI5ZWl7wuQSeY6QJlrBQqZ6UWooZVjhpaVegKqzk9aXWhX61xRoNlQkyXAH6duPEKPt4ikUgUf5o5c2aa5HUJOv1bXWg0PeGQZCVRD+tEOmQwWU7EdAngVXvuaXy8RSKRKD71Tcbqf5kqPyExiaTpUqy1rjYaLR0xXQJ6Lj477LGafLxFIpEoPvWmvbC/uQIUEpFIm66KVhnabl1vNFo6YrqEfZ6tf/LBTuLjLRKJRPGpzyctP07yugRFMNPV1KpG91sX0XNWdx93WxdST+tEamfV8/2GAVRrWuWplVWbRljt6TdrrNFkORHTJXxvr83lYy0SiUTxq5m2Xf6QvV3yugQfwUxXf6uV0TQhb+uQ5dUoPE0ggpmuk2s1Nq6vED+w6Xqcj7VIJBLFt3Z5175sqgSFxCOY6brKamE0TUVFTJfwx6QN8qJrkUgU//rcs3yQqRIUEo9rT7nIaHoUF1tNQ45iuUFMl/DW5IXn87EWiUSi+Nan9oqT8ySvS2AGt7nCaHoU51oNxXQJxcLSiTPq8bEWiUSi+JY9wE7P8+bmmSpCIbEIZrrOtOqJ6RIizn5Pzp6s3r1T+FiLRCJR/OtHe728h1EIarpOtWr7EuVNxqkoiOlKbH72bniDj7NIJBIlhn6w1442VYZCYhHMdGFYiDwxXUKE+Tlzw2I+ziKRSJQYesNe0F7G6xKCma7aVgUxXULE+cezaSIfZ5FIJEoMTRsxolyeN+eAqUIUEodgpquGlV4qpuukWo2M6yvEB29mLOjFx1kkEokSRz/YG140VYhC4jD8zB5G06Mob6WWiulqVqM+HTKsrxAfLB7/RHM+ziKRSJQ4+sW7bqqpQhQSh4nnXmM0PTpiuoRIcsCTc4AsSubjLBKJRImj/3gWXyh5XYmNG9P1szXGaJyKgpiuxOV3z+aP+CDLi65FIlFiCe9hPOjN2W+qGIXEwO44oJDhcfKVdafROBUFMV2Jy5/25s18jEUikSjx9Iu96f9MFaOQGDx88VCj6dH5nzXUaJyKQjDT1ahqXTZducZ1FmKb3Z6t0/kYi0QiUeLpL++mB00Vo5AYuDFdr1o3G41TUQhmuhpWqS2mK055z7tEXnQtEokSUy/bC7tKXlfi4sZ0bbGuNRqnoiCmK3FZYT/dmo+xSCQSJZ5872H0ZMt4XQnK3KvGGU2PzlKrl9E4FQUxXYnJIW/uwe0dt6fyMRaJRKLE1B/2lrdNFaQQ/8y7arzR9OjMtboZjVNRGGKdYVyWQkxXfLLbs+0727JkuAiRSJS4+jtz8yxTBSnEP25M15PWZQUM037LQ3usiT72WRkFfnNLf6uVcVmKuhVrICpiXGchdtltb/0/Pr4ikUiUuMqx51x2yN4ueV0JyLqr7zGaHp0OVj1fc+CFVhNKs1IoyUpirCMkUSWrjM+Y/W1NMhosE2K6EpP93pyVfHxFIpEocWXbdpmDkteVkLgxXW5pYlWl36xxRpPlRExXYvKuZ/FoPr4ikUiU2Nrt3fKRqZIU4ptImi5wi9WaDhlMlhMxXYnJavvp8/j4ikQiUWLrL++GZaZKUohvcgY8bDQ94YJmyEiYrloVqonpijPyvLl5cwfMTefjKxKJRImtTZ5nukleV+Lxyk3TjabHLdWtdDrXOo6GWmfQK9aNrgwXCGa6apSrjJu0cZ2F2GSfJ/sX27Kl56JIJBJ17NgxNc/O2WuqLIX4xY3pmmpdwGbKGwCzsQqEmK7EY4+97WM+tiKRSCSC9ni3fmuqLIX45Y3BzxhNj85dbLpMxqkodLdaGJelENMVfxzwbnuZj61IJBKJoD+8G7eZKkshfvlo2AKj6dEpDtPVxWpmXJZCTFf88ZF32f18bEUikUgErc54ppepshTil2g1XZXKlGPTlWNcZyE2WeF58nI+tiKRSCRSyvPmynhdCUS0mq6KYrrijmkjppXjYysSiUQipf129q+mClOIT34Zs8Y3sjwfer+I6RKKyn5vzt983KXnokgkEun607PxDVOlKcQnbkzXU9blRuNUFMR0JRb7vdk/8nHlU00kEolE+VrmfaK3qdIU4hM3pmuO1c1onIpCMNNVIS1dTFccccCT/RkfV5FIJBI5JYOkJhI7gpquLKu30TgVhWCmq0xKKh0U0xU3fGYvn8PHVSQSiURO5dnbD5oqTiEeCW66tljXGo1TUehoNTIuSyGmK77YbD/dn4+rSCQSiZz6ybv2LVPFKcQjwU3Xq9bNRuNUFM606huXpRDTFT8cYpba06rzcRWJRCKRU5szZlxvqjyFeGQHpaeWMRofhZguoSgc8uYeJFt6LopEIpFRbwxaW/6QnSt5XQnBDl/SOh92v5SG6UpKssR0xQl5ntx9fEyl56JIJBKZ1Lt375Q8G0+n5kpUiCei03QBMV3xwSFv7t98PEUikUjkT99lrH7NVIEK8cYOqlq2gtH0KMR0CUXhc+/y9Xw8RSKRSORPL3jn9DVVoEK8sYNqlq9qND0KMV1CUdjgnXELH0+RSCQS+dOXE1fUlbyuRCC46SqOISPcmK4DnmzD+gqxxqMT7q7Nx1MkEolE/jR3gJ0ueV2JQe0K1YymR7HG6mc0TkXhRKumcVk6349ablxfIdYg6bkoEolEwfSDd+3/mStRIZ5oWKW20fQoFlo9jMapKDSzqhuXpSOmKx7Ywcdbei6KRCJRUL2XueQGc0UqxBPBTFdxvPBaTFeCkLkDx1IkEolEwfSZvbK55HXFP8FM12CrDb1g3eDjeasnLbC654Mo2EvWjbTbmmg0V/4Q05UYfOtZ8zofS5FIJBIFU5Y9vWKeNzfPVJkK8UOLGg2NpicUylgpdI7VkO62LqBd1kij0dJxY7o+vWORcX2F2OFlz7wMPpYikUgkcqMfvOtfNVWmQvwQCdOlU95Ko9HW2XTIYLYUbnovvjV4lnF9hdjh1Ynzz+BjKRKJRCI3+sq7cripMhXih0ibLsU/1iSj4QIXW02N8+iI6Yp9vh2/sgYfS5FIJBK50X89WW0kryu+Ob3O8UbTUxSusJoFjHRdZbUwzqcjpivW2UHbh9oV+ViKRCKRyI3uH3N/pUOS1xXXtK7bzGh6wiHZSqLh1pkBo1ygv9XKOL+OmK4YJ3MH2bYtY3SJRCJRKPrRu/51Y6UqxAWBTFcqm6jLrebU1cAV1gk03bqMvrDupDzLS4d8mE2Wk2FWO+PydLZc+6BxfYXY4GfPug/4OIpEIpEoFO2yV2eYKlUhPmhbz39TX22rgs9QmYxTUciwzjUuT0dMV2zztmfRw3wcRSKRSBSK3rGXnCd5XfHLuQ39N/U1taoVi+m6yzrfuDwdMV2xzX8zFl3Fx1EkEolEoejBBx+skOfN2W+qWIXYJ5DpamXVKhbT9bjVxbg8HTFdsc3nGatP4OMoEolEolD1s3fTa6aKVYh9Oh53qtH0gHbWsa7ztEJhrtXNuDyd9f3vM66vEBtkT5hVm4+jSCQSiULV794ND5oqViH2ubjpGUbTAy6wGheL6cqyehuXp7Og+0Tj+gqxwA7KsrPK8HEUiUQiUah6c/LiLpLXFZ8EMl1XWM2Npqmo7LAGGJenI6YrdvnNu+lLPoYikUgkCke2badunDSv6Yee5Wf/Ym/u/5F3+Yxd3rVvH+InWjzVmipeITYIZLr6WScbTVNR+dy6g5IMy9MR0xW7fOpdPp+PoUgkEokirKRF4++t9vakpY33T8lt8473+ds+tpct2e3dvOuwGRNDFu1c1eIco+kBt1pnGE1TUUFyfqqVbFymQkxX7PKlvepmPoYikUgkKill2XaZ7cPnVv3hgfV13py8oO3/2c/d9a13zRuHMsWMRQ876PxGpxtND/BaHY2mKRI0tqoal6no3uJcOmRcZyHa+cWz5mw+hiKRSCSKBtkd7dT3emeVobnb01d5nrzijYyFM//2bv75UOb2vEPe3EOSP1a8/D5+PZ3d4GRKTQocbXrEusRomCJBZ6uJcZk65dPSaUWfycTnhHE7hOhk+/hZx/PxE4lEIlG0iyxKIqKk6ZMePG6LPXPo157VG/Iyc3ce8Ob+ftCbvUcMWfj8MGoVnRNgXC4n86yrjIYpErh5FZAiyUqix7sMo90TNhm3S4gmdtDsG8dU4uMmEolEohhWkjJkizzTOv7HXpS517P11X129qd7vdt+PGDn7DXfBAREihZ2nxg0eV0nxUqmXOt6o2GKBM9aVxqXGwiYr94tO9LXw5cat1MofX73bvmaj5VIJBKJ4lV8R/aZsZn33dcw257d77tJa5484N32wl+eLR/t9Wb/ZLo5JAp/T9xE7Ru0LGRgApHMu3Om1dVoliLFW9Zg47LdAPM4on1v+m3cOuM2C6XHd5lr1vAxEolEIlECKj86tuSuJ1q/7V08ZK93y6zd9ubs372bP9rnzf7HdOOIF94bMpeqlClvNC6BuMhqUiyDouqgB2NZK8W4fLekp5ahBd0n0EHJ+YoadnnWTeRjIxKJRCJRAfkM2byJM+ptmfrcBd95Vw7/07vp2Z/tDS/+6d3ybaz3sNx07QNUNiXNaFYCUdZKpX3WJKNRijQnWjWM6xAqZ9Q9gX4Zs8a4H4SS5beM9T34mIhEIpFI5E58J0/aOGxj2fVTZp345uSF3fbb20bu9Kye97N34+sHvLl7o92QzbtqAqWlpBYyJ26Yb3U3GqTiAIn6aMo0rUeoNK5alz6/Y7Fxfwglx/aJc0/j4yESiUQiUdHFd/ikpXc/W/NF+/lTfspYfeXOzHUTvspcteJXe9Pn0WDGlvedQqnJ4TXbdbGaFXuzopN5Vjdqa9Uzrk+o1Chfid4cNMu4X4SSYActnfBYTT4WIpFIJBIVr+YOsNM3T5rT4OMpq0/fPXlDl/czF0/93l774qHM7YdKwpC9fMN0X54Tr4prBlmt6U1rMO23PCVuuBRYrmKvlUFfW3f61su0vsEom5pGr98y07h/hOLlH8+Wn/ggJPFxEIlEIpGo9LRgmF35lYnz6v1pr275n4zn+r2XuXjWL94NHx82Y0U3ZF8MX0KVyqQXMiEmKlplaLN1Df1pjTeaoGjhf9ZQamhVMW5DIMqnlqVdo1Ya95NQfOziBwze/yKRSCQSRaeysrJS3h71YIX37KXVP5+0/Lhsz6zbP81YtjWU6NifEzZQtbKVjAbEyQVWE/rHmmg0OdHIActDE6xzjdsSiNoVqtO+jK3G/SUUDz951z3G+14kEolEopiUb7gLsu3kWfZ97f7lnTt118Q1b+d5c/cw+/Ps3IO42fU68Tyj8dBJtpJptdXPaGxigVW87hgc1bRt/sDo+05jIBQfv0/aPIT3u0gkEolE8SV2FT5DduZpbS46/K9/UqwU+tC63WhmYomPeRsqWKHlrGX19hoNghB5/m3P7cT7XCQSiUSi+NOll15aNjk5eQ//aTQcIMlKpg/iwHApvrDuoLQQB1X9Y/wGo0kQIsvsMbOP5f0tEolEIlH86fjjj3+AP4xGA6BJ8S3rVqN5iWXe5m0yba8/Tq7ZhA4ZTIIQOfZmbP0Lgw3z/haJRCKRKL40aNCgKvxxiDEaDbyw+lXrZqNpiQfWWv2N2+2PWVeMNpoFITL87NnwH97PIpFIJBLFn6pUqfI2fxgNBlho9TCalXjiTutM47abqFy2Ah3wZBsNg1B0frU3LuH9LBKJRCJRfKlbt25n8YfRXIDOVmM6YHmNRiWe2GNlUKMQxvG66/ybjIZBKDq/Z2zy8D4WiUQikSi+lJaW9i1/GI0FXlj9nTXCaFLikY+t25BIZNwXTupVOobyvDlG0yAUjdcyFsqLrkUikUgUXzrnnHP68YfRVIA51pVGcxLPjLfONu4LE/O7TzCaBqFoPDd++vG8f0UikUgkih+lpaX9wB9GQ3Gh1ZgOJkCzopMfrNGUbNgfJk6t3ZTyvLlG4yCEx35P9l7qTSm8f0UikUgkig/VrVv3If4wmolkK4l+ssYYTUkiMMY6y7hfTLw7ZK7RPAjh8Ydnywe8X2W4CJFIJBLFh2zbTk5LS/ud/zQaiR5WC6MZSRR+ZsOZ6vI1QcPP7Gk0D0J47PZu2cb7VSQSiUSi+FDjxo1H8YfRRIBXrBuNZiSRuN06w7hvnNSreAzt9Wz9dp83+zf1/kohfHZP2vAk71eRSCQSieJDFSpU+JA/jCaimVWD8hIwl8vJp9YwSnEZ7TrzzDPPwQjqeH/lDPvBlrneWQN2edY8e8C77dXd3q1f7PVm/2kyGEJh3vQuvon3qUgkEolEsa927dpdwB9+R5+/3+psNCGJyMVWE+M+clK9evXp/OlP7NwoKSsrq+L6u58+/yNv1qg879ZFf3m3vAxDdtCbe8hkPhKV56c8c9KR/SYSiUQiUWyrSpUqa/nDaB4qWGm0z8owGpBEZL3L1wOVL18eY52FnPzNM/uiY/PveaL5v6bMu/JX7zrP7swti37xbnz1b8/Wn0ymJJ456M3ZP3PQzLQju0ckEolEothVjx49jktKSjrIfxYyDuACq7HRfCQqhywvVbbKGPeVk/PPP/8E/oyYuNCkmeNmVtk2eU7bj+ysfofs3Ik/ZK5b+pN347uH7B1G0xLr/OPZ+o1tWclHdoFIJBKJRLGrKlWqDOKPQoZB8WwCDoYajPOs44z7yskxxxxzM3+WiMi2k1dNndPgtanPnfW7d+M1OzPXTf06c+26PzI27aQYNmT/ZG6VF12LRCKRKD5Up06dRfxhNA3gxwQem8sfT1hdjPvKCe/bHP4sdc0ec3+lDfb85h9OWnTO3snben6Sufyx7zLX/vtwdCy6Ddlfk7auOrIZIpFIJBLFttLT03fxh9E0pFspCTkCfTD+sCYY95eTpKSkQ4MGDSrPf0elkDu2cvw9Nd6durgpTdnS5l3v4pve9y6d+1vGhu+ixYy941005sjqikQikUgUu+rXr9+x/JHHGE1Ddas8HTKYDsGmY6xyxn3m5LLLLjuOP2NOWbZd5qXxi6p9Za8+9oOJz5/x78z5ns+9K3IPZZZsdGzp5Cc6HFklkUgkEoliVw0bNuzMH36Himhp1TQaDsGmFtYxxn3mpEmTJmfwZ1zJ7minvmdnlaG5X6Qv9zxxyeuehY/+4tnwxSHv9rxD3txDh+zIDHmR583Ny+qdJe9cFIlEIlHsq0GDBpn8YTQLYJJ1rtFwCDZ1thob95mTlJSUy/kzYYTxx/BKqUXjH26y1Tv7lo8nLVu835u984A357eD3py9JnPlj33e7F95XydSz8UyRz5FIpFIFG+qU6fOi/xhNAvgX/LqH7/cZ11o3GdOTjjhhCn8KToy/hiaLZdMfeS8N72LPH96N2fvz8z5aK83+0c2ZYUM2X47+/Mj88a7MA7Zxwya+v9k0hmJ8IkSWhjk8HgGTQUnM4k2WF855jQG21+bkTf+x4HKlSu3kz+MZgGI6fLPQquHcZ85ady4sfS+CyLeUT5DNuue6cdvt2f3+2zSsgf2e7O37/ZsW3pkkniX872nrZi6TCojEiWkGjB4CkH+C8D4O+iVlCihbwwroLb9R6YyI6NEx7Bs20ZTht9BUYGYLv+8YQ0y7jMntWvXfo0/RaJAepNR58wfTH+mDYOHXZEo5nQigx4wZzGIVoUTpWnM6AnH9zAotwKTCNrAqG3fzZzJ1GEkBB6e8C65PsxIBl3ib2G6MTifSiSKePXVVx/DH357LgIxXf75zRpv3GdOypUr9zN/xoMQdTmFUXVpU6ao5yrO90uYG5jRDK6FW5lzmHCG2kB9dDYD06LKu5bpyIS6rnigxsN2KKAVIFRhP+r3lqeZAcypTFkmUkJZ5zPYH/q+CfWtCag3TNseCm4f2GsxXRkEObC+AC8/b8FEUs2ZK5nrGOwb1M24x6GZVxSibmdUhEYxkMHODCVK5TRdzzIXMTWYRGhq003X3wwqNRgHSfwMTbio32bUuaj2KcD/+5iNDIZywA2k2M6t9u3b4wHEuQ4FENMViExKsZKN+81J7969Y/3hBPXle4w6bxWvMDBHoW7fecxWRpXj3Gf4DlHY1YzKbwp0LcAQPsqgudxfeb8y0xhMG6zux/LwcKnWzy1YZ6SfwOC4vXbvZ/R1HcH0ZGBOInHewLRsZtQ66ssC+O4DBnUTzFCg9a7C/MOossLlJQaG21/z6VDmLUZNb1rn/zIwR8HW2Z8qMvcynzDO5aj/9zMvMDCnOGeKrT6OJ/2P0Q8WgGloyWCnu92JTtM1n7mMgetPhAOhmy5cdDCueOoV0+Veyxj9HArEHga93kKpvENSw4YN0XwRcH3EdAWmnJVq3G9Orr322liPiCPCYNq2n5jTmWqMm4dYnMvI03J7HYArGNSz/m7QiLh/xJjmNfE+g3kC3azx0GOa1w14rVYTxm2UCi9GV/PC/AxmOjEwOEW59rENbzBu9zWmW8EgdcSf2UP0LZRj549vGJw3OK76stB69DVjmscE1mUhg+srlCAKTB3SZExlmsByPmPaMuGavIQQkhH9nSC9GAxa6O9CdkpM19FtL03TtYPB8tHDB2F4VGyhXGylpeWM2n+Kd5lNDCJbeDhwnqt4aoYxKpYmx5SUFDQ16MsrhJiuwLg1Xb169arOn7EqJHQjAmvatt8YRBtQP7qJyuCcd5bxA4NIzBwGDya4Jr5n1O8TGHTg8WdckQOll3eAeZ1BlAy9c79j9N8BrjeYEn/1F6LAznncgOZ6RKrOZWBegl23mE6/7hH1up6JRCtCLqOvG8CysD/A3iPfOZnF4Hw1HU+sE/avab5QgNHEeYNmPb2p8UtGnw51ICKsOJaIjqGpXv8dYJvGMm6MP47HE4yzDAUiW6bzRfEXg6ZN5NqJ8TLobkbtLISK9Z2HGx0uZITG3ew8MV1Ht700TReerNV6oGLFk1FRnwiLW8hX0XOncC5OZIYw+O1qpjeDvAU8TanpAG4+qJjQxBLRbaxUqRLycvRlFQLvGDSZDeEwbk3XBRdcEE6uT7QIvS/VtqDJB1FY9f/vDJqlmjHBTBdummo+gBuozeA6uJHBddCD6c7goRh5jh4GOTzIyarKOK8BNDHpZSKyg56AgxmYl74Mri3k6TjNwmwGxsv04O00XVkMzNRtDKIk/kA+GvYHrq1KTDBhHfTlDGeQ24lIXFEfJvXoH0zmZOYOBpE47G+A/Q8joa8DQN4e9rdzHbD/0eyJ6CPWFfvVDWjG08uHGUaTHepv3XSp+h0m/xEGy8D64ljCpKlj6VxnnEuIQgUzuk8y+nwAJus+Rt83WB6OJYZ70R8AAM7HRoy+3iIWThZEQ9SOep5Bm776H8ahC+PWNInpKrjvosF0IRR/FdOQcfOUXVrCWENqnYGqSFC5tmaQSIttQJMEKg5ED9S0OOdwkddjIrqN1apVQ8Wqr1chulstjGZDOIxb09WtWzfcwGJRSLJW9R4eHBB1Csd0IUcpf38waEIaxuBBAwnMeACG0cF5jshafQYPG7g+EA1COogzsR4PW3rvW0RJkMOLB5mLGeRW4eaIawvrB6OgrwPWHQn7JnPhNF3ovX0Ng1w0RJ+xXv5ACwvWP9hNGVF6RFbUMhCZwv5AR4BQUl/8CS9bxz7BfoaBgJHAvsY2o2kP+wfNhYh4O6OFjzHY56YmUtT5aCVCXYU6xA16BAvHDMYYBgrHRz9vvmJgdHB/wb6A+cY+dx5L5Kk5OwHhuKMO9bffcUz0ezhYyWD/wGjhXoJzDUMjwQxi+3E80dQLw62ivYiqYdvD6egR18KJq+9gL5Ot/Q/w1IID6KaJUUzX0W2PFtOFJ7l+DC60aDVd2E/6eTOPQQWIfC1UIghT4/xDpY9P/I8KQE0PkIPSjoloM+Nxxx2HitdZCRWgnlXZaDaEw7g1XUeG54g14ZxE/qvaDrQO4GEB17/6zq3p0m+6eBiGOcK1gRsaboa4ganrQIH/EeGFAcHv+E4XolqqTNWsh2sHN05EFmEYsE6qLESe0IlFzQPQnId1dx4fp+lC3hAMC9YV1yjKDoSb+gjl6ctAywyMHYwu1reowjbBuOLhDgEG1NfYL9ifWEeYE0yD/eIcJwzNfxcyaLJz1jn4H/NiP+C4BAOmVjfHeAhFHYiOaM77J9YLZgemCuYQdSSiV1hP7FOAfYO60NkM+DiDHof+mqH1dQBI+YAHQIQVxhCGH/sCy8IyANYHy8dxh9G6k0GErj3jbzkJK1wkauciaQ8HGa5Z3/HvMNjZbp4q3JgunFz4H5+oLMIVTmiUge6y+CzKwcW6YftQDi44fOJiCVXRarrQfIBj46yQ3QgXFPZHzSOfETU1R+TM5cJFi4sceQFYvnN5+B/HX7/ZIfKFp3REAMLZTqNatGiBp8eApqu6VY4OWV6j4RBsKuPCdCUlJWEfx6LwQKO2A+YKdSjOXf3cdGO6cDPTzzP0/EbTId77iWa0YAYD14TputTze/A31g91MpZninagDER21DwAOaIwac4UBZPpghFAnRypaxCRKFU+9iOaWWGOUB+ZtjdU4XggNwv1I+p+3JOw7s6y8T/MjX6MkO+F6CTMRlG3Fzl6qlwsA68eQ9QNx8J5n8Q6w+hhuTgmODdM+wLf6fckgKZaf0YRZkyfFhE1GH+cz4hmYZ5Ay8J64T6KfYkHYLROoP4WHRGcqR56xAUDk4AQtt4+i9waPG24aT8PZLoQnv2Cwe8KLH8bA3fsrzJyCm3lzzGYVy8LINcHN163xgAnLFw8wvjOsgCeZBAmxQXu5qJya7oyGKw/wD5C5ResfDSfwQxjHnTPRZlqHvyNC0SVqdYBqG1RvwEYFFSM2Of+9hPCx+sZTK/vE/AhgycZkyEKVZh/F6PWF+s2mEHFgMrQX/nY9k8ZNR/WE+P2wKiZbiZhqU2bNigP26yWU4gKVhrlieky8qs1zrjPnFSuXBl1Q6wJ1w/OO7UduKGhuQeRKT0/1o3p0usONKehXsIDMG5c4Z7PzvoYCfiok3ADxUOlv2sLkRd9PkRLTA80xW26cM9xrj+idJFstsI+wDGBmQi2zphWT6xH5wYYkqK2IqD+1k06UnyQ+4Z9iX1uKhvriu/9HUOl7YwqF6A161LG1Pqk9xDFfkeOGfY3WsTcJOBDmAbnK+7BEc+xjXXhCUrtYFQcyEPARQ43j8RM9RtAeBnhzGARG5PpwkmpjyRsAvNMZxC2DHRgURHplZw/8GSmngBMwjLQtq3nCgQCF9pgJthJ5NZ0vcqo6WAcEN5GFCnQts9l1DwAT0DqQsC8+m9uQBs9KjXnuuF/NJHox9EfvzDoQYSLLNyLC3kP+rL+xeDYYL8Fe0rCmEP6+kxlUCGHE6U06qKLLnKe04VIspJov+Uxmo5EZ5t1nXGfOalfvz4iGrEm5MCqbUBzEKIwyijpScxuTBcemtT0aGZEEyXydJzRpVA0hlFlAnRMwfoF65GOOkXviYl6EvU41l+fr7hNF+pPVTauQRgG5Djhmgy0/sUl1LN6XYBmWDR14ngXxXRhXDRVJpjBwOxEIl0CxlCVi04SMHNosjRFuvT7IaKiOJ/R7BpOPjDKLsp6x6X+j1E7GC8RHcxcwOBgwFzoTYyIbKgKIJCcNyiYENyY1f8ACabOhEQF2pv9dcPFxawbLqwf8njw+hB0sdbbrvGkgJ4xiFA5y8KJoPfYVOCExLoi6oVK0vk7tgvJi4GMoVvThXVW0+HpAiFqZ4XmlNN04WJXUR2EdAMaAweYdhyDfaQfUzw9OnsG4okdvZ/+zaBbsp7ADnBMsI2BnpwDCeZfX3fkc6HJxk3FiqROfV0WMIgyIIobEfXq1QvnUFCj/7Z1q9F0JDpTrE7G/eWkWbNmuNHEktC0o+pI1B14UMX1jjwW1BF6B6Vgpgvf6REUnMeq11qwB91AQm9CVSbOYTy0qo5RwUyRngsGMC8e9PQHoeI0XahLdCOKeglNo6gvAkXAi1POugrjdSF1A4GKUE2JErZDN0Y4p7Cv0UM1lOGaTMI9W6+7cI+EmUdTMc5RXUghUtMB+AO0ruB7TFsa+zuuhJNWP3lU0yKalFQ0Rx8UDU89eMII1nYdKCqAbtToejuYQa4C2ooRkXJOhzC204XjhEbOmZoGOUto9kNZaFLCUxhOfrwuBqM/w8jgxg1T4qy0nDdqVHYYiBB5RCgPURaUibKcoVlcEOiS6+/pMxzThQsBbffBxpxxmi7sQxUNwrogWoZjhGRPPVSNJ3DkB0xiEM0E2HdYNxgUPL2pbcHo12o+HEeM+4KKDhcq1hH7FPsaEUz9YkbliKc9Z+6BG6F8VQ5AjyBUOOimHqzixjL1eXE+4XUpEXsDAhElJyUlBY2IjrbOMpqOROdyq5lxfzmpVq0azEAsSR9qANczzmMYDtSRqK9CMV3IpdHrTSS74xpAWXioQmcORBxQBt5ygZupm5ux/mCN6xWRC/VQEuz6cA7TgCgTIi96FLk4TRfSSPR9gpQS1MvqHlUaQu9MfXtxnDB0h5u6yp+c9R9SOlC3I0G+KFFODB+iR1tx78J9AGYeearOfYgcQn09cPxxruG+Em7ztkgToiRq5+KGghs1LnI9jAhzoR8ERCBwkw90wvszXThZcSLhosFFiQgL8gpwETuTqNEUie7EeuQEB14vFwO3oTyUhQoJFz/a1fFkiCdN9HqDuTI9KepmAcYIY4/gxIehQKQPXZ1xUmJbUZZzkDhUts71UwrHdCF/DvsFywzFdMEI6U+e+MQ+wD7VI3VYX+SZYJ/gCQft8wAVvW6UYHb1fQwjilA0LlLsF2wzpgdYV+RXqGkB9iEqylCfzGAG9XIQTcRxNeUcOIWKTp8X0Ti3+YeuVb16dec4R4U40TqGDhlMR6JzilXLuL+cnH/++XiqjxXh4UatOx5IEZnAdQJDoHKNQjFduM7UtAD/w+TgIQiRZlyX6tpUfyO6huETcL2jTNO1og+yipsu6gxc+26arJwpJqgnnRGS4jRd+phV6h4Fg4M6JmLXdgiCUdVbaPCwDhOLYTeKEnlDa40qE2AcLNyLQjU7uHfgfoB7O8aM08dbw/nyMDOYwfqiw4BzHzrrOBhKGP2IdkxKVOHk0KNYOOi4GJHorkeYcCGrCx0gvKuaH/2dYCbThZs3bsiIkCBUiacCNIfhZo+LH5WtcxA3GED9xHC+igWOHdPgokclhxs9wImHsnGi4DfcuPVKDhWfvhy1bjBoiDQhQgIzhXIA1g9Pm0jy1edTBsNZgZam6cIxwfzYH3qPJZguXIjIycOTE/YPwLZhXrWPnU/FuJFgPuRIoYkN06r9jL9hbPSImhqyAWWHUgGhMldlAERDEfUIdJ7p0k00mj9xXqBnVsQqiuOOOw43E30dC1HZKiPJ9AZqWxWM+0unTJkyf8XQexdxTurNQYgQ4FpE05Pe4SYU0+U0OP7ejWgCZgq5jLjunee8Ho3DTRgPX3jYwrTBri3UXfpyHmRwj9DTEZymC7loLzJrGDRt+gNRmEDXJ8yGXrcgdwr7GPMVJfpTFGH79W1FPinyrtDxTI/+hSLkVunHGYOz4t7i9n3FMEqY34m+nqjX8WCL/QcTBTNnCpzo5wrKULlfpdWUG1fCCaIfGLxWAk1HzigWdrTzQOCiRfu1v2iG03ThSQw3bxgu1eXUWemgLGfUBG5fb26DYdDLRegTlRzKMwkXNC5c54WtmxE1Dg6aJVG+qdKCsH64kav5AKJ+aqR+XaVpunSFOk4Xnl5Reat58IoLHGs82frLscN3MDlqHuR6Icrkr7eNPz3EqDIAKgg8jbmtXHXThUoLUYiIPg3XqVMHT9n6Ohr5yBpmNB6Jyl/WRF8nA9O+0mnQoAEi4bEidPhR645oB25OaBXAuFH69RuK6UKTuprWCczSfxj08ka6AwY7dk6DawCRf6QK6OXjJcVqGkSLkKODeitQa4WS03Rhu9GjWE9HcJout7zMqOEZTNc4Wlz06bFsRBIj8dqfcIR6Vs+5Q6oL7muIvIWTZK7kHBMTdR/OE7QqmOp1p/S6zwRym9FRCw+2eJDF+WdqoYH0MeJwzsH8oRk71IdokUH3MGrnIqkdvdgQ6VG5CLpw01XTAiQOIurkz9k7TRcSQmHoEAHBTdTfjRCVlj4fEuqxbHXAYaD03jQwCHg6dJMQqkvPzUHnAfX0pFckJmHf6OuHJy90u3U+jcSq6XI2LSLJHscE8wQKceP4qnlQKaFiDHXIBqfpwnHFE5abvBPIabqw3oiehlsRFlLVqlWxf/R1NOK1OhrNR6Kywupr3E9OypcvjzoiFoQovV4PYegXPJyY8m9CMV3OXCEAY4LcS9z8YJZwbeEBEec36hX9gQcgNxTNm/pNUjdduJEiMoOHXzc3dJg4vXy8bsbZ6y1c04V1x0Mz9qdpf+hmBPsOBsc0ZEVJCOvnfFsG8mJV78JwTQke9PW6CwEBGHgMsWRq/jMJI8Xr6xUI1I24XyGIYFpfvdMC7q+DGaQBFbX3pIilt/XiqSlQ2BY7XL8ZI6yOKIQ/s+M0XUh+REjTZOh0OZsPESGDM1ehTYDKRv2uQMWGxGmUHezEQHOYPi+WgYrMzVAYKF+/QFARIKKCpxx9P8Sq6bqL0ctex6DZBO8hG8/AhJlA0qeaBxcqbg44lm6epJXQVKwvG6YLFbJb06XPi6E4Im662rdvjxuVfn4aaW81kLwujZut1sb95OSKK65AvVFSwk0HzV+IAgQC5xLOIf36RrRJrTeuK+T0INph6mUWiunCS+nVtABmC2VjHtyE0SSIhxm0MmBZuJZx7Ts7eKAzEPaleujBjVb9pkwXcmDdmC4ML6GXjYejYKYLKQbYR8hFCwTMqnqoc+43SL/WkKcJYwsD4M/g4PpEz3PTcVTA1KCexf53U68oOY3NTAZGGDmy/kyjG6EcvVwMG4FOXKq50s064jjjnMIwIJgX+wnrhhYcrLfeegFwTuKehePvLF836Nj/uL8gHUhMVxGF5jD9ICBJHBc2wramCxE7W7+xAlQIONCmi8Vpukwj0pvkHAQPPR0RfdMdPwwJImCmkCrmRQg6UDQNuUn6PMjTwcnqNjysDxyHdUC+E9rH9f0Qq6brGUYvOxxwgWOd0PnA2ewaSM5EeuR0hRLp0udFBa2aF8OtDAvJtu3klJQUHE99WYWoZqXTQRmvK5+TrZrG/aRTs2ZN9DgtSeF61+uaQCCHSTWv4yar5sMnejfjusVDhunGVJTmRbQ+4DxG5ApJ6bgJo57BvAp8hwihPh9yVJU5gZyJ9Hgocmu6nC89Rt4YHoYCNS8iYocbPwwV6m9/4EEcLRmo3537A4n+epmoD1B/Yd/5i6CvZfR5/IHhgJDv6cZI4HfnAyEMI6Ju2D6Y4FAeLnUh908/B9FKgJQapLGEUndhHXHPw3HA/QPNkrgn4JxE9BX3Xn0AaYBWGtynneeAM6EfKRVuO12IAkh/1QAuQlR4MAq4oeMig3Fx4nT6OPFwY1UXtq5wTRd+0+eD6YIhQoRMmSh84kaMCxChdH16Bb5Drx9TfhaeSPVpYeBUTzc3JxWGotDnV0ZJrwhi1XQhuVUvOxywHVgnFZJ2K2czBs45tzldeCrU513CYMyziCbSQ3Xq1EF0RF+WkcVWT6MBSTQ+sYYZ94+T+vXr4+GlJIXohKnucIJp0NyDhzXUdXokYDEzmEE03l9PWZPpws3RNC0iP2pagOWqnFVMb7oO8B2ufX0+JE1jnVR9i4cQ9RseFGG6EBVyYxac5/toJlgiPR5kcf3hIR77Gc2BJrDPYGZNJgr1iCoPb6pAxA+pHHonBafQoqKvhz9w30BZwYwN9h2iRfq8SEeB4ULrCExNUcaucnacUGYVJifUcrFPYMhx7wA4J2DIcc5inyHXEJE+fXljGBwDfR8488uwT9ECJmN0FVFBn9ZdgDwwf93ywzVdeJrT54MZxNOEs/kOf6MiwhMgnjTxJOcMsQNE55xJpc4bNCoIVFA4Md2cVPqratDbUo2arhulWDVdSJzXy8ZFiQoGNxYsJxhqOozrgmNjWid/QlRLP/YYGwznjJveO8MZfb3RBBLxISOgypUro/LXl2Wkk9VImhiZYVZb4/7RSUtL2z1ixAh/+aHFKTTX4dpEFAVN6yZwY0RzHCIyMBv6OYq/AYyMPwpsK6OmR/2JKBZulOr8xg1XLx8RFiwz2A0P57g+Hx5W9d67SBNQv2E6XKPYdjf7XK/vUJdhXkRP9Idtk+nCkBEqgoV1D4RT2Cd6kxjqcdVDMFD0HOuEOgPRGUTkTMcTDGaw7zHsjb+oGQSDrG8X8p0QiUI9jYdKGMZw6xc8kOp5gTgnUN8iXw/rpbecFEVqH6Muxr7Rtwdvf8A+1Y8ltk2fBhGxiI55mIhCTwR9pxYFnMCmgUfDNV04AfT50JvRZLog/I+TBbkNSGREuBr5WWpeBXKRsFxlNHAj1n9H7gHWzY3pwoWgV6TovQLThXBuUU0XnkJK23RhDBe9bDzVYv+j4kdF6wY8paHpAgba33JMco7BhqFJ0PzgJplU3984PjBhpg4ORVaXLl1wrPX1NJJiJdGP1hijEUkUMHTGsVYl4/7RqVatGjpilIYQ6cENDoYKw+D4A3UmmrVw8wl67EMAEShEW5T5wXWsl4+IrbMpzyT8ps/3OgNToXIanW/eQN4QrlXUn4HKxbx6fQfTAWOI+lY3bP5MV7jjdKHeUWUhBw1jRWF7cF8JZEawLBghRKAw+KvpWALUZ7jX6PcFp5xNtoiOYT1Q3yPyg3qpKMYI5kovHwGGwQzWT8+Xi5RQHu4r+nmCYAXufdgWtTwcV/2YI7CA1qFg+diiAMIFqXYonDaSN59i/DUr6jibn5BkiosXzX26wjVdMCf6fEjgxhMbQtSmixdl4cRH5YFpEF3BU6vzxMIFpj8t6k9RSDJ127zobJLYwuBpCIOvhtO8qOfJoRkCpstp4JwqTtOFClUvG0nyqLxQeeLJzC24mWEZwfanLhxf52uhsL5ucu30IUBgXlF5oWJ0mw8WksqWLauPz+SXB6zORjOSKKyx+hn3i5Nzzz0XUYPSEM4NXDeoG2Bs/IHzCOc0bub69V9U1JsT9IisPiQBxgVEDlmwB0LngyTemYqHJWW6YBr19YbZU82WgcrF7/p8GKoCdRTqMr2+ibTpgsFRZeFvJIUHe/G9ErYXdRCaP03HUoF7Bu4dpvKQ0qIbD9SjMIKItmE9EEEsiuHCvUKPIAIMBq2GwzDV5ZEQjoV+PDEAucpnVscJ+8P5ijd4g6K+iiphhR2rNy0ioRDNJWgOQldcGKNAwPHqzXg4gJjXmTvjNF0vMG4qD2ekCuFWrJebKBQuNlSMuND194UhjwLrrbff6wPuwezgKcrNzR0VmZoPIB8MTyzYXn1et6YL43zp5aEpL1CzHLbvHUafJ5DpwvFV0yEqF8x04Tf9uKFZwu3rQiIhvVcYQE5LsKEnYOT1ChIVCZ5GcYMsliarqlWrIlFZX08jJ1m16FCCDpT6tzWRjrOqGPeLTsWKFXEjjwbh/PaHEv5GlARNTBjzCM3YgcBAmnoTEqIGGEwTkSb8hvMb0VzUn+qa1K9ZzIubYrDcI7Q4qHkAlu0cHFjPLcN6YLl4iAxUrrPnIhL9Tc1fkTRdiLroD8UYixFGD3Uc6r9Q5DyOOv6EsST1exweBHEfQh4cUiBwLALVR26EXGi9nsU7jWEskebiJrIfrtDrVS0T4H6rm3MlpOzo08GEwWyq3EJRCHLmo6A5CSc0wsW4AGFuguEcSwYXuDM64zRdAF1jAz0hYB79YkPEApUSwq1ukqmVcPLoN2+Muo8nCD0a5YzYodcemvUCPWHggtcjHHgtB3oXqdwFff3cmi5nzgAigjgWprwFnOx6boYikOlCboeaDjkkSFZGBRmootUThXE8YLbDfWINVdifatkAUUhUUHhy9Xf8X2LU9DBf6AWJijNQL6ciqUOHDqiAnOe3kbcS9AXYmVZH4/7QSU5OPnDeeefhuowl4drEuaVyvAKBBxb9AQ8PgLi54iEQ5xCisXjI0us3ZyQbEZBgw9no0TGYKzy84bpFfa3KRW6OXq6/1BBdzmgPysXDs7M+iKTp0h9EYX6wTOdDc3EJLR6oJ9XysV8R7UcLACKSMCeB9pcb4Xg4x1ZDJAn3YXRuCKXHt7860Z+cA+riFUsw53pHNQj3aGf9hnXGteo2CofzBMtTD/mhrmvcSL8Jo60cPTOQC4Wdjh2NHR8MVBT6AUE7PyoYhGzVjjWZLgBTYUo+xLzI4dGnxcWHiIXeywbmCVEpyN9BxEmhP13iFQk4ofVcKURu9PXDhYYLy19iJL7bzKjpAd5rhXnQvIrmCV1uTZdzP8Fo4sJHLpK+HjAPzpduKwKZLiSj69PC1KAC92dGsE8xFIg+DyJr6PmC8oNdOKiUME2w6fwJkSm9qRAgKRY9nUzHBaZVvzHAYOPBotiNYoUKFXRz6pdeVsuES6hHj8U0K9m4P3QqVqyIh6NYE24gqI9Qh8AsBUN/tRlMl4raoK7B73ig0M0EjJL+8IkoA8wbpjVdV85hEtBkiXpJ9YBTwsOcXtcgggMj4a/clxm9XDxso3kNYzbpiddQJE0XXn2kysE1hvoNzaP+1jNSwvrqhgv7CoOfolc1IlCo29wajkBCZF4/DniQR3BB3YfdGkukpmD0eNzDce8Otm+cr1nDclWPUGfaD/7GuaFPD3CPxv0O9w9/y4M5xsgGahthmFF/F9WsxqRwI9cHREW+wGAGJ3QozUfYeRiATpUDcDHqzXNOM6HfGLFcuGt1MeJJz3kDQ0WDED66Hevl4jUYKBfTw5A5T1CcPGhe0stCFAsRHr2ZCtvqfJs6jBoSV/WnQwiO3TkSMU52GBiEZk0RFbemCxeLnr8AsG+xTDUt1l3vPq1X4iCQ6XKGiVGhIUSOmwaeqNDMgX2GY6G2Gb85x3TB9sPImC42REgxzhuaL3FssC4wT+EYHpSNik5fNs4dvAxdr8BxjDCEiX4+Y9noNKE/MTrXNWKqX7++s7u3X/5nDTWak3gEyfMdrPrG/aCTkpKyt2PHjnjYineZhoxAneHv5opzXB/MFCDKhDpErz+Qp+p8OTHqTdRLSCNAxxR9epSLvE59etQluN70ByqYM2e5GJsQN3c0dSJy4azvImW6ED3U7xsY9kcNXB0Jw+NPMMB6RBJgHyAtBg/bzzO4jyD32R/qnhaszoEh0ZeDug1NlzCzzof3QNKHLsI9A0M9IDfSuXzcP9B8qS8TdeoDDO6hGAoFxt8pnDt4NaA+H0Cdi/IQgcU5iU5TWH80A2OML71OBriPo7VCz6lOGDmdLpLUUQGE+h4r7DjkMullYYfrESmn6cLN3XkwEDpG+FafDuApD8nwOJDO8UqcOT+YHyccTAkqHN3cAZwEcPOIHjnzznCimd5fhvVE0yHK0/PfFIimwMzAaGL99AifklvTBTmTXBV46tKfeAE6BSAXRJ8+kOnCk5NzvwOUrcrAUzG2QTekOH7YB875UDFhv+ApSe0f57qjwkdkDMYrnIsM24GX5eplAhxbrDeW6TzOAJXIYAZPpf4iYxHTtGnTysE48J/O9SjEIKu10aDEI09YXYz7wEnDhg0R9U4EhWq6cM3ABOjRegXON1x3uA6d1wCmR7I36k3UKShDv/7wN65zU12DulhdW87f8Z3qtYebuiniFCnT5RzaAnU3yon40C8O4f5g2i+hgOOM9Qz2sKcvB/sWpgStNyYzG0jOVgyAsvVjaar7MQ2GBkIzN/Kl/TXbYhtw70UOorMMnUD7DZ32ECkstk5N0S5nOzLaynGyIVIR6gntDFXjIGMgS3WhO00XLh6YA70CMoFyMDbNYAbRHucJAWNnuuGagEHB0xkqOTwVOt08thlRHjzJBDpxdHAS4UlSJVXi5m7KUQvFdOFCw74Jtg5ozsQJDPOsTxvIdOFY4KLWy3GC5kQ87eCiUMI6IekS0SvTPCawTjDAqJxxkYXbHIB5MK/bgQ6xXES4cI7haRM3tOJ8Ks5XamqqcyBBv3xt3Wk0KfHExy4HQmWzinqgWE1xFClU0wXhN9R9qA8L7Ds/IPke1zkeoNBchIct0w0c5eK61t+qEQg8YKLcYPVdpEyXHm16icH2BMvpjIQQxXd7D/AH6nmUg04G/oIYeDDU5/kXg/obzcehJqnjOGBw3lDWG/dOdApAXYmoJSKIgTob4XzBPR0+wdmzPBA455EziGZTNWZjsXRqinYheRwXEZ6UcFHo+UihntCYHj24kH+DigRhazS1qaZAtPkjBInfYX6wLNyIEYpEUxQOICoU5coxHRJIcZAwLQwXLmQVOVNC2YhYISSOXDKc6Jgfjh6fiM7AXOKJD04eoVVEo9AchXmdQsWEigQVCkZexsmCcvDUiKdKlI/v8BsMnCoTFwnWw9/FhX2BLsHI0ULlgSYvf6YL+xKVCtYTI0mrbcLyUQnhOxg9XJxIEEevIzTRwuCglyZMDsr2ZzSwD5G0i3lU2QBNCzCHMHLOsWHwifJQQavxzzC92jcAf2P90NSKcZZw7AYz2D/K5IZ6XinhWOGY4fzEOurLVstFUyk6cWC5uCmgYkCiZ7E2K+rq06dP66SkJFcPATdYpxqNSryA3op8xzBuu5NBgwahnkgUod5F8yDqXTSJo7kMdZupPtKF6w8Pr7j2YZJw7aJOUHUmrgHkXSEKhXoJ40phGAjsW9Qz/q4B/IbrGuuBHF/UmShPLxd1NnIpcXNGuag/YOT81XfYFjSJok5CFBwj66MOD8V04RrWDQRaExA1x74KJQIUjmBgEHlFXY19Eg54AEM9j3uc876lhMR13Bewn5CyAUOLOj2c4RiwX1Fno468h8H+V8dSr6NRdyIvFz1RcTxxv4AhhuHCfTrY8cGxxXJgnNBzFcORoEycJygfqJYh5Jlhm3A+ItCAexUCJTBuwc73uBQOKk5g3ERxY0RoMdSQpi4cMJxgcMwoDzsYlYR6EsJNF932ETpFBAIHGREMXPBou4cxwYGBycIFh4sbOVw4iVBxmJqn8D++x3rDxGF6PDmiqU+VgxMfFyue+GBGkMsW6IBjfXFSoAcmonU4sVAGygIoG+uG9cXvmA4RMtMTnxKWB1OGZEQ4fRiCQJUHTnxEmnDxqXnU8nGR4MLE92gKxroChPqxrjieprwyJVU2OhLgmKOyxTap7cI+RKTM2WsG+xoVP0LmOI54isN64JhhvbC/UQb+x/HHMUal72afu5E6LigP264vG8vFfsG24LzDvlDnjNtKPiJKT0/XX7ESkLetwUbDEuvsszKosVXVuM1OmjZtig4yiSJ1DeG6xvWB6wTXkZuEacyLmzemRbQHCcmo65zXHuo6NKnjpgiTE8hwQWqd8LCJFgvUTapOUOWi/sP1hnLVQMeoX/yVi+/x8I7rEOsD/KVe+BM6AKjzBAYQD1O47p1J3sUhtf54WER9iG0PB5gZ1MX+DBTqJux33EdQx6P+xv3O2XHKrVBHYl6cXwgEoC7EOabuq/rxxDGBEUarBqKoodSVmA73B8yH+XFe4H6I+wfKV8vAsuEHsH24Z2B6zFeidXI0CRsO0wNjhCRLXMxFiQqgPFxUKA85PPjEiat2sDohYJDwG5aNigYXr5oPN1Sc6DhAMAW4cWI6zOtvvfA9TmqUgW1AgjwqHJwMKAtlYpmIlLg9sTANKjhc4FgvrAscOsrEJ/7H9/gd0wUrE+uoTlLsa/R8CRZRxG8oGxUc5lHbhEoPFzK2Ry0b24/pYORgYvX9bhJ+w/rggsexQtnYLhhIzI99bpof66TmxfKwXzEPjhfWDZ/Y3ygTxwJPRGodA22rW6EcHENsu75sHGcYRSwX5hbbH+icKTaNGjWqVlJSEm4SBcyFP96JsyEkdlqjqLZV3ritTsqWLftT7969i2rGY004h/V6V92I3JyrmAbnNR6acJ7j5orrFmZJ1XVoztLrulDKxYOzqhNwPam6GNeZKhfr6qZc1OuqTsK8+Nuf+XAKQ+7oUS7VUxLrgu1ys01FFc5L1F+4B+FYhQOOEYIN2F8mYTuwP1FXok5HnYZ7JI5FuEKZ2M84x5AqhHJVPanOE3U8cUywfGxrOPsU82F+3Adx38D5iPMG9ygsA+cR9h+2Ccct3OXElbADcIBxgURih+jl4dNZHk4+fO/8Tc2HkwUHB+BvUxn+hOmwDVg2bvSqHDzFoRy3FZAutb76eqFsfd1CXT/M53a7MA3WQd8mfOJ/5/b427f+pNYH24IyndsVSPgdYFp/+0adT8HKClXOZav9guNs2i8lrho1ajiHEwnIK9ZNRgMTa/ybt6OSVca4jSZatWqFm0wiSp2/+nUSijC9qa7Tr99wrgHMo+obXE/OckO9tvQ6CX+7lbPHMvJM0ULiHLSzuKX2c1EItr/UMsLZT4GkjiXK1OvoohxPk5zLwXmDc1LVx272gUgkEoWvrKwsVDRuO3hQkpVE461z6EAMj1b/jHU5pboYi0vRvHlz5JOIRCbpvciRq4ucIOSRhdI8KRKJRKJEUaNGjfBu0gJGIxgnWzXp3RhrbvzCuoM6WccZt8cf1atXX2jbdqSe6EXxJTRL6U2LuI6QH4SmU0RPRCKRSCQqqCO5Sq6jXYqyVgpNss6l/VaG0eREC+idOM46h8pZqcbt8EflypXf79WrF5o4RCKTEM3C2INIpEfvTv0tKbimRCKRSCQqrJYtW6LnjtF8BOMYqzxNtjrRXmuS0fSUFm9Zg+kCq3HIZgukpaXtbtWqFW6eIlEgqZ7w6KEJw4XOAsE6HolEIpEokUVESY0aNcJoz0YT4oY0K4UaWlXpOutUeta6knZaY4xmqPjIpCyrF51h1aWaLnslmkhOTs7r0KEDhhAQiYIJSdnoOYienTDpqqe7SCQSiUT+demll5Z1+3ogt6RZyZTOZqyiVYaqWGWpOpuhWlYFqmtVpHbWsdTTalmIPtZJNM26JCDXs7HDtBhjq7pVjipYaZRiJRnXIRTYcO3v3LkzuqqLRG6FqBaMFpAIl0gkEoncqWbNmhiY12hI4h02nLv79++fqENDiEQikUgkKmlVrVoVrwYxGpN4JS0t7behQ4fiDQYikUgkEolEJaMhQ4ZUq1y58nb+s6gv0o0JypYt+82NN96I5GeRSCQSiUSiklerVq26paWl4eXcRrMSD1SoUOH/27tjE4hhGAqgscvD4MKLeAuPZUh/S9ycx5GoT3dFYngPfqENBJalOHRrDgcAuFdsrG+t7THvdJaXjcuKiQ8DvfdYZAkA8Bxzzlcp5Z1z/p7lZSOzQlJKv1rrZ4wRx5IBAB4rnuJWDwAAAAAAAAAAAAAAAAAAAAAAAAAAAAAAAAAAAAAAAAAAAAAAAAAAAAAAAAAAAAAAAAAAAAAAAAAAAAAA8J9tOwAyz/blpOc/cQAAAABJRU5ErkJggg==;" vertex="1" parent="7">
                    <mxGeometry x="590" y="60" width="142.28" height="113" as="geometry"/>
                </mxCell>
                <mxCell id="9" value="&lt;font style=&quot;font-size: 17px;&quot;&gt;Fahrenheit To Celsius, In Js&lt;/font&gt;" style="text;strokeColor=none;align=center;fillColor=none;html=1;verticalAlign=middle;whiteSpace=wrap;rounded=0;" vertex="1" parent="7">
                    <mxGeometry x="279" y="40" width="220" height="30" as="geometry"/>
                </mxCell>
                <mxCell id="13" value="&lt;div style=&quot;color: rgba(0, 0, 0, 0.87); font-family: Helvetica, Arial, sans-serif; font-size: 14px; text-align: start;&quot; class=&quot;page-content&quot;&gt;Temperature&lt;/div&gt;&lt;div style=&quot;color: rgba(0, 0, 0, 0.87); font-family: Helvetica, Arial, sans-serif; font-size: 14px; text-align: start;&quot; class=&quot;page-content&quot;&gt;Formula: (32°F - 32) x 5/9 = 0°C&lt;/div&gt;&lt;div style=&quot;color: rgba(0, 0, 0, 0.87); font-family: Helvetica, Arial, sans-serif; font-size: 14px; text-align: start;&quot; class=&quot;page-content&quot;&gt;&lt;br&gt;&lt;/div&gt;&lt;div style=&quot;color: rgba(0, 0, 0, 0.87); font-family: Helvetica, Arial, sans-serif; font-size: 14px; text-align: start;&quot; class=&quot;page-content&quot;&gt;Fahrenheit&lt;/div&gt;" style="text;strokeColor=none;align=center;fillColor=none;html=1;verticalAlign=middle;whiteSpace=wrap;rounded=0;" vertex="1" parent="7">
                    <mxGeometry y="100" width="249" height="30" as="geometry"/>
                </mxCell>
                <mxCell id="12" value="Enter Value.." style="rounded=1;whiteSpace=wrap;html=1;" vertex="1" parent="7">
                    <mxGeometry x="21" y="160" width="149" height="20" as="geometry"/>
                </mxCell>
                <mxCell id="14" value="CALCULATE" style="rounded=1;whiteSpace=wrap;html=1;" vertex="1" parent="7">
                    <mxGeometry x="21" y="210" width="110" height="40" as="geometry"/>
                </mxCell>
            </root>
        </mxGraphModel>
    </diagram>
</mxfile>